<?xml version="1.0" encoding="utf-8"?>
<!-- Generator: Adobe Illustrator 21.0.0, SVG Export Plug-In . SVG Version: 6.00 Build 0)  -->
<svg version="1.1" id="Слой_1" xmlns="http://www.w3.org/2000/svg" xmlns:xlink="http://www.w3.org/1999/xlink" x="0px" y="0px"
	 viewBox="0 0 48.9 48.6" style="enable-background:new 0 0 48.9 48.6;" xml:space="preserve">
<style type="text/css">
	.st0{fill:#1EAAE0;}
	.st1{fill:#C8C8D4;}
</style>
<g>
	<g>
		<g>
			<circle class="st0" cx="41.2" cy="24.6" r="0.9"/>
		</g>
	</g>
	<g>
		<g>
			<circle class="st0" cx="7.7" cy="24.6" r="0.9"/>
		</g>
	</g>
	<g>
		<g>
			<circle class="st0" cx="24.7" cy="41.1" r="0.9"/>
		</g>
	</g>
	<g>
		<g>
			<path class="st0" d="M23.6,30.3h-5.8c0.5-0.9,1.6-1.8,2.6-2.7c1.9-1.7,3.8-3.5,3.8-5.6c0-2.7-2.2-4.3-4.3-4.3
				c-2.2,0-4.7,1.2-4.7,4.7c0,0.5,0.4,0.9,0.9,0.9s0.9-0.4,0.9-0.9c0-2.5,1.9-2.8,2.8-2.8c1,0,2.4,0.7,2.4,2.4
				c0,1.3-1.7,2.9-3.2,4.2c-1.8,1.7-3.5,3.2-3.5,5.1v0.9h8c0.5,0,0.9-0.4,0.9-0.9C24.5,30.7,24.1,30.3,23.6,30.3z"/>
		</g>
	</g>
	<g>
		<g>
			<path class="st0" d="M33.9,26.5H32v-8c0-0.4-0.3-0.8-0.7-0.9c-0.4-0.1-0.8,0-1.1,0.4l-5.7,9c-0.2,0.3-0.2,0.7,0,1
				c0.2,0.3,0.5,0.5,0.8,0.5h4.7v2.8c0,0.5,0.4,0.9,0.9,0.9c0.5,0,0.9-0.4,0.9-0.9v-2.8h1.9c0.5,0,0.9-0.4,0.9-0.9
				S34.4,26.5,33.9,26.5z M30.1,26.5h-3l3-4.8V26.5z"/>
		</g>
	</g>
	<path class="st1" d="M24.5,47.7c-13,0-23.6-10.6-23.6-23.6S11.5,0.5,24.5,0.5c5.2,0,10.2,1.7,14.3,4.9L39.6,6V1.9
		c0-0.5,0.4-0.9,0.9-0.9c0.5,0,0.9,0.4,0.9,0.9v6.7c0,0.5-0.4,0.9-0.9,0.9h-6.6c-0.5,0-0.9-0.4-0.9-0.9s0.4-0.9,0.9-0.9h4.8
		l-1.2-0.9c-3.8-2.8-8.3-4.4-13-4.4c-12,0-21.8,9.8-21.8,21.8s9.8,21.8,21.8,21.8s21.7-9.8,21.7-21.8c0-0.5,0.4-0.9,0.9-0.9
		c0.5,0,0.9,0.4,0.9,0.9C48.1,37.1,37.5,47.7,24.5,47.7z"/>
	<g>
		<g>
			<circle class="st0" cx="24.7" cy="8.1" r="0.9"/>
		</g>
	</g>
</g>
</svg>
