<?xml version="1.0" encoding="utf-8"?>
<!-- Generator: Adobe Illustrator 21.0.0, SVG Export Plug-In . SVG Version: 6.00 Build 0)  -->
<svg version="1.1" id="Слой_1" xmlns="http://www.w3.org/2000/svg" xmlns:xlink="http://www.w3.org/1999/xlink" x="0px" y="0px"
	 viewBox="0 0 138.9 52.6" style="enable-background:new 0 0 138.9 52.6;" xml:space="preserve">
<style type="text/css">
	.st0{fill:#FFFFFF;}
</style>
<g>
	<g>
		<path class="st0" d="M38.5,39.6h-8.6v12.7h-3.2V39.6H1v-2.3L25.8,2.2h4.1v34.6h8.6V39.6z M26.7,36.7V22.4c0-6.9,0.2-12.7,0.5-17.3
			h-0.3c-0.5,0.8-1.9,3-4.2,6.4L5.1,36.7H26.7z"/>
		<path class="st0" d="M137.9,39.6h-8.6v12.7h-3.2V39.6h-25.7v-2.3l24.8-35.2h4.1v34.6h8.6V39.6z M126.1,36.7V22.4
			c0-6.9,0.2-12.7,0.5-17.3h-0.3c-0.5,0.8-1.9,3-4.2,6.4l-17.6,25.2H126.1z"/>
	</g>
	<g>
		<path class="st0" d="M69.2,30.5c-4.9,0-9.2,2.7-11,7c-0.3,0.7,0,1.6,0.8,1.9c0.2,0.1,0.4,0.1,0.5,0.1c0.6,0,1.1-0.3,1.3-0.9
			c1.3-3.2,4.6-5.2,8.3-5.2c3.7,0,6.9,2.1,8.3,5.2c0.3,0.7,1.2,1.1,1.9,0.7c0.7-0.3,1.1-1.2,0.7-1.9C78.3,33.2,74,30.5,69.2,30.5z"
			/>
		<circle class="st0" cx="62.3" cy="20.7" r="2.9"/>
		<circle class="st0" cx="75.6" cy="20.7" r="2.9"/>
	</g>
	<g>
		<path class="st0" d="M69.2,52.6c-14,0-25.3-11.4-25.3-25.3S55.2,1.9,69.2,1.9s25.3,11.4,25.3,25.3S83.2,52.6,69.2,52.6z M69.2,4.3
			c-12.6,0-22.9,10.3-22.9,22.9s10.3,22.9,22.9,22.9s22.9-10.3,22.9-22.9S81.9,4.3,69.2,4.3z"/>
	</g>
</g>
</svg>
