<svg
		xmlns="http://www.w3.org/2000/svg"
		xmlns:xlink="http://www.w3.org/1999/xlink"
		width="60px" height="60px">
	<path fill-rule="evenodd"  opacity="0.671" fill="rgb(209, 209, 209)"
		  d="M30.000,-0.000 C46.568,-0.000 60.000,13.431 60.000,30.000 C60.000,46.568 46.568,60.000 30.000,60.000 C13.431,60.000 -0.000,46.568 -0.000,30.000 C-0.000,13.431 13.431,-0.000 30.000,-0.000 Z"/>
	<path fill-rule="evenodd"  fill="rgb(255, 255, 255)"
		  d="M32.843,20.773 C32.504,20.392 31.940,20.392 31.589,20.773 C31.250,21.142 31.250,21.757 31.589,22.124 L37.947,29.040 L16.967,29.040 C16.478,29.041 16.090,29.465 16.090,29.996 C16.090,30.526 16.478,30.964 16.967,30.964 L37.947,30.964 L31.589,37.865 C31.250,38.247 31.250,38.863 31.589,39.230 C31.940,39.611 32.505,39.611 32.843,39.230 L40.706,30.678 C41.057,30.310 41.057,29.695 40.706,29.327 L32.843,20.773 Z"/>
</svg>