<svg
		xmlns="http://www.w3.org/2000/svg"
		xmlns:xlink="http://www.w3.org/1999/xlink"
		width="60px" height="60px">
	<path fill-rule="evenodd"  opacity="0.671" fill="rgb(209, 209, 209)"
		  d="M29.766,-0.000 C46.205,-0.000 59.531,13.431 59.531,30.000 C59.531,46.568 46.205,60.000 29.766,60.000 C13.326,60.000 -0.000,46.568 -0.000,30.000 C-0.000,13.431 13.326,-0.000 29.766,-0.000 Z"/>
	<path fill-rule="evenodd"  fill="rgb(255, 255, 255)"
		  d="M26.945,39.227 C27.281,39.608 27.841,39.608 28.189,39.227 C28.525,38.858 28.525,38.243 28.189,37.876 L21.881,30.960 L42.697,30.960 C43.182,30.959 43.567,30.534 43.567,30.004 C43.567,29.473 43.182,29.036 42.697,29.036 L21.881,29.036 L28.189,22.134 C28.525,21.753 28.525,21.137 28.189,20.770 C27.841,20.388 27.280,20.388 26.945,20.770 L19.143,29.322 C18.795,29.690 18.795,30.304 19.143,30.672 L26.945,39.227 Z"/>
</svg>