<?xml version="1.0" encoding="utf-8"?>
<!-- Generator: Adobe Illustrator 21.0.0, SVG Export Plug-In . SVG Version: 6.00 Build 0)  -->
<svg version="1.1" id="Слой_1" xmlns="http://www.w3.org/2000/svg" xmlns:xlink="http://www.w3.org/1999/xlink" x="0px" y="0px"
	 viewBox="0 0 35 36.6" style="enable-background:new 0 0 35 36.6;" xml:space="preserve">
<style type="text/css">
	.st0{fill:#1EAAE0;}
</style>
<g>
	<path class="st0" d="M33.2,13.9c-0.1-0.1-0.2-0.1-0.3-0.1c-0.1-0.1-0.1-0.1-0.2-0.1l-0.9-0.4c0.3-0.5,0.5-1,0.5-1.5
		c0-2-2.3-3.7-5.2-3.7c-1.7,0-3.2,0.6-4.2,1.5l-0.6-0.3c0.2-0.4,0.3-0.8,0.3-1.2c0-2-2.3-3.7-5.2-3.7s-5.2,1.6-5.2,3.7
		c0,0.4,0.1,0.8,0.3,1.2l-0.4,0.2c-1-0.8-2.4-1.4-4-1.4c-2.9,0-5.2,1.6-5.2,3.7c0,0.5,0.1,0.9,0.4,1.3l-1.6,0.7c0,0,0,0-0.1,0l0,0
		c-0.3-0.1-0.5-0.1-0.8,0.1c-0.2,0.1-0.4,0.4-0.4,0.7v11.1L16.6,33c0.1,0,0.2,0.1,0.3,0.1c0.1,0,0.3,0,0.4-0.1c0,0,0.1,0,0.1,0
		c0.1,0,0.3,0,0.4-0.1l15.8-7.2l0.1,0V14.7C33.6,14.4,33.4,14.1,33.2,13.9z M11.9,10.8c0.2,0.3,0.3,0.7,0.3,1c0,1.4-1.8,2.6-4.1,2.6
		S4,13.2,4,11.8s1.8-2.6,4.1-2.6C9.8,9.2,11.2,9.8,11.9,10.8L11.9,10.8L11.9,10.8z M8.1,15.4c2.9,0,5.2-1.6,5.2-3.7
		c0-0.5-0.1-1-0.4-1.4l0.3-0.1c0.9,1,2.5,1.6,4.3,1.6c1.8,0,3.3-0.6,4.3-1.6l0.6,0.2c-0.2,0.4-0.3,0.8-0.3,1.3c0,2,2.3,3.7,5.2,3.7
		c1.6,0,3-0.5,3.9-1.3l0.3,0.1l-14.2,6.5L4.7,15.2l-1.8-0.8L4,14C4.9,14.9,6.4,15.4,8.1,15.4z M17.4,10.8c-2.3,0-4.1-1.2-4.1-2.6
		s1.8-2.6,4.1-2.6c2.3,0,4.1,1.2,4.1,2.6S19.7,10.8,17.4,10.8z M27.1,14.4c-2.3,0-4.1-1.2-4.1-2.6s1.8-2.6,4.1-2.6
		c2.3,0,4.1,1.2,4.1,2.6S29.4,14.4,27.1,14.4z M1.5,14.9c0,0,0.1,0.1,0.1,0.1l2.7,1.2l12.1,5.6v10l-15-6.9V14.9z M17.6,22l15-6.9
		v9.7l-15,6.9V22z"/>
	<path class="st0" d="M17.2,19.4c2.9,0,5.2-1.6,5.2-3.7c0-2-2.3-3.7-5.2-3.7s-5.2,1.6-5.2,3.7C12.1,17.8,14.4,19.4,17.2,19.4z
		 M13.1,15.8c0-1.4,1.8-2.6,4.1-2.6s4.1,1.2,4.1,2.6s-1.8,2.6-4.1,2.6S13.1,17.2,13.1,15.8z"/>
</g>
</svg>
