<?xml version="1.0" encoding="utf-8"?>
<!-- Generator: Adobe Illustrator 21.0.0, SVG Export Plug-In . SVG Version: 6.00 Build 0)  -->
<svg version="1.1" id="Слой_1" xmlns="http://www.w3.org/2000/svg" xmlns:xlink="http://www.w3.org/1999/xlink" x="0px" y="0px"
	 viewBox="0 0 38.8 50.4" style="enable-background:new 0 0 38.8 50.4;" xml:space="preserve">
<style type="text/css">
	.st0{fill:#C8C8D4;}
	.st1{fill:#1EAAE0;}
</style>
<path class="st0" d="M37.4,0.6h-36C0.6,0.6,0,1.2,0,1.9v46.5c0,0.8,0.6,1.4,1.4,1.4h36c0.8,0,1.4-0.6,1.4-1.4V1.9
	C38.8,1.2,38.1,0.6,37.4,0.6z M2.5,47.3V3.1h33.8v44.2H2.5z"/>
<path class="st0" d="M31.6,7.4H6.7c-0.4,0-0.8,0.4-0.8,0.8v14.5c0,0.4,0.4,0.8,0.8,0.8h24.9c0.4,0,0.8-0.4,0.8-0.8V8.3
	C32.4,7.8,32,7.4,31.6,7.4z M8.4,21.1V9.9h21.5v11.1H8.4z"/>
<circle class="st1" cx="19" cy="29" r="2.3"/>
<circle class="st1" cx="10.4" cy="29" r="2.3"/>
<circle class="st1" cx="27.7" cy="29" r="2.3"/>
</svg>
