<?xml version="1.0" encoding="utf-8"?>
<!-- Generator: Adobe Illustrator 21.0.0, SVG Export Plug-In . SVG Version: 6.00 Build 0)  -->
<svg version="1.1" id="Слой_1" xmlns="http://www.w3.org/2000/svg" xmlns:xlink="http://www.w3.org/1999/xlink" x="0px" y="0px"
	 viewBox="0 0 39.6 42.4" style="enable-background:new 0 0 39.6 42.4;" xml:space="preserve">
<style type="text/css">
	.st0{fill:#1EAAE0;}
</style>
<g>
	<path class="st0" d="M33.9,16.2v-1.6c0-3.8-1.3-7.3-3.8-9.9c-2.5-2.7-5.9-4.1-9.6-4.1h-1.3C15.5,0.5,12,2,9.5,4.7
		c-2.4,2.6-3.8,6.1-3.8,9.9v1.6c-2.9,0.2-5.3,2.7-5.3,5.7v2.5C0.5,27.4,3,30,6.1,30h3.2c0.6,0,1-0.5,1-1V17.2c0-0.6-0.5-1-1-1H7.9
		v-1.6c0-6.8,4.9-12,11.3-12h1.3c6.5,0,11.3,5.2,11.3,12v1.6h-1.5c-0.6,0-1,0.5-1,1v11.7c0,0.6,0.5,1,1,1h1.5
		c-0.4,5.4-4.1,6.7-5.9,7c-0.5-1.5-1.8-2.5-3.5-2.5h-2.6c-2,0-3.6,1.6-3.6,3.6c0,2,1.6,3.6,3.6,3.6h2.6c1.7,0,3.1-1.1,3.5-2.7
		c0.8-0.1,2.2-0.4,3.5-1.2c1.9-1.1,4.1-3.3,4.4-7.8c3-0.2,5.3-2.6,5.3-5.7v-2.5C39.2,18.8,36.9,16.4,33.9,16.2z M8.3,27.9H6.2
		c-2,0-3.6-1.6-3.6-3.6v-2.5c0-2,1.6-3.6,3.6-3.6h2.2V27.9z M22.5,39.6h-2.6c-0.9,0-1.6-0.7-1.6-1.6s0.7-1.6,1.6-1.6h2.6
		c0.9,0,1.6,0.7,1.6,1.6S23.3,39.6,22.5,39.6z M37.1,24.3c0,2-1.6,3.6-3.6,3.6h-2.2v-9.6h2.2c2,0,3.6,1.6,3.6,3.6V24.3z"/>
</g>
</svg>
