<?xml version="1.0" encoding="utf-8"?>
<!-- Generator: Adobe Illustrator 21.0.0, SVG Export Plug-In . SVG Version: 6.00 Build 0)  -->
<svg version="1.1" id="Capa_1" xmlns="http://www.w3.org/2000/svg" xmlns:xlink="http://www.w3.org/1999/xlink" x="0px" y="0px"
	 viewBox="0 0 67.3 61.1" style="enable-background:new 0 0 67.3 61.1;" xml:space="preserve">
<style type="text/css">
	.st0{fill:#FFFFFF;}
</style>
<g>
	<g>
		<path class="st0" d="M56.8,55.2H38.3c-3.7,0-6.7-3-6.7-6.7V11.7c0-3.7,3-6.7,6.7-6.7h18.5c3.7,0,6.7,3,6.7,6.7v36.8
			C63.5,52.2,60.5,55.2,56.8,55.2z M38.3,9.1c-1.5,0-2.7,1.2-2.7,2.7v36.8c0,1.5,1.2,2.7,2.7,2.7h18.5c1.5,0,2.7-1.2,2.7-2.7V11.7
			c0-1.5-1.2-2.7-2.7-2.7H38.3z"/>
	</g>
	<g>
		<path class="st0" d="M29,55.2H10.4c-3.7,0-6.7-3-6.7-6.7V11.7c0-3.7,3-6.7,6.7-6.7H29c3.7,0,6.7,3,6.7,6.7v36.8
			C35.6,52.2,32.6,55.2,29,55.2z M10.4,9.1c-1.5,0-2.7,1.2-2.7,2.7v36.8c0,1.5,1.2,2.7,2.7,2.7H29c1.5,0,2.7-1.2,2.7-2.7V11.7
			c0-1.5-1.2-2.7-2.7-2.7H10.4z"/>
	</g>
	<path class="st0" d="M33.6,58.3L33.6,58.3c-0.9,0-1.6-0.7-1.6-1.6V39.1c0-0.9,0.7-1.6,1.6-1.6h0c0.9,0,1.6,0.7,1.6,1.6v17.5
		C35.2,57.5,34.5,58.3,33.6,58.3z"/>
</g>
</svg>
