<?xml version="1.0" encoding="utf-8"?>
<!-- Generator: Adobe Illustrator 21.0.0, SVG Export Plug-In . SVG Version: 6.00 Build 0)  -->
<svg version="1.1" id="Слой_1" xmlns="http://www.w3.org/2000/svg" xmlns:xlink="http://www.w3.org/1999/xlink" x="0px" y="0px"
	 viewBox="0 0 29.8 29.3" style="enable-background:new 0 0 29.8 29.3;" xml:space="preserve">
<style type="text/css">
	.st0{fill:#1EAAE0;}
	.st1{fill:#C8C8D4;}
</style>
<g>
	<g>
		<path class="st0" d="M9.3,14.3c-0.4-0.4-1-0.4-1.3,0c-0.4,0.4-0.4,1,0,1.3l4.4,4.4c0.2,0.2,0.4,0.3,0.7,0.3c0,0,0,0,0,0
			c0.3,0,0.5-0.1,0.7-0.3l11-13.2c0.3-0.4,0.3-1-0.1-1.3c-0.4-0.3-1-0.3-1.3,0.1L13,17.9L9.3,14.3z"/>
		<path class="st1" d="M22,3.7C16.6,0.3,9.8,1.1,5.3,5.6c-5.2,5.2-5.2,13.8,0,19.1c2.6,2.6,6.1,3.9,9.5,3.9s6.9-1.3,9.5-3.9
			c4.5-4.5,5.2-11.3,1.9-16.7C26,7.5,25.4,7.3,25,7.6c-0.4,0.3-0.6,0.9-0.3,1.3c2.9,4.6,2.2,10.5-1.6,14.3c-4.5,4.5-11.9,4.5-16.4,0
			s-4.5-11.9,0-16.4c3.9-3.8,9.7-4.5,14.3-1.6c0.4,0.3,1,0.1,1.3-0.3C22.6,4.5,22.4,3.9,22,3.7z"/>
	</g>
</g>
</svg>
