<?xml version="1.0" encoding="utf-8"?>
<!-- Generator: Adobe Illustrator 21.0.0, SVG Export Plug-In . SVG Version: 6.00 Build 0)  -->
<svg version="1.1" id="Слой_1" xmlns="http://www.w3.org/2000/svg" xmlns:xlink="http://www.w3.org/1999/xlink" x="0px" y="0px"
	 viewBox="0 0 23.8 32.9" style="enable-background:new 0 0 23.8 32.9;" xml:space="preserve">
<style type="text/css">
	.st0{fill:#FFFFFF;}
</style>
<g>
	<path class="st0" d="M4.5,10C4,9.2,3.7,8.3,3.7,7.3c0-2.7,2.2-4.9,4.9-4.9s4.9,2.2,4.9,4.9c0,1.1-0.4,2.1-1,2.9
		c0.4,0.3,0.7,0.7,0.9,1.1c0.9-1.1,1.5-2.5,1.5-4C14.8,3.9,12,1,8.5,1S2.2,3.9,2.2,7.3c0,1.5,0.5,2.8,1.4,3.9
		C3.8,10.8,4.1,10.4,4.5,10z"/>
</g>
<path class="st0" d="M20.2,32c-0.1,0-0.1-0.1-0.2-0.1c-0.2-0.1-0.3-0.1-0.4-0.2c1-1.3,1.6-3.4,1.6-6.4v-5.1c0,0,0-2.6-1.5-3.1
	l-0.5,0l-0.1,0.1c-0.2,0.2-0.4,0.4-0.4,0.7c0,0.3-0.1,0.6-0.8,0.6c-0.3,0-0.6-0.3-0.6-0.8v-1.6c0,0,0-0.7-0.5-1c0,0,0,0,0,0
	c0,0-0.2-0.2-0.7-0.2c-0.9,0-1.2,0.5-1.2,0.8v1.4c0,0.3-0.3,0.8-0.8,0.8c-0.5,0-0.8-0.5-0.8-1v-2.5c0-0.4-0.2-1-1.2-1
	c-0.9,0-1.2,0.9-1.2,1.2v2.5c0,0.3-0.3,0.8-0.8,0.8c-0.5,0-0.8-0.5-0.8-1V8.6c0-0.3-0.3-1-1-1C8.2,7.6,8,7.7,7.9,7.8
	c-0.1,0-0.1,0.1-0.2,0.1H7.6L7.6,7.9C7.3,8.2,7.1,8.7,7.1,9.4v12.4l-1.9,2.3C5.1,24,5,24,5,23.9c0,0,0-0.1,0-0.1l0.6-2.9l0-1.2H5.4
	c-0.6,0-1.3,0.2-1.5,0.4c-0.6,0.9-0.6,2.3-0.6,4.2v1.4c0,1.9,0.7,2.8,2,4.2l0.2,0.2l0.7,0.7c-0.4,0.3-0.8,0.7-1.2,1l0,0l-0.6-0.8
	c-1.4-1.4-2.7-2.7-2.7-5.3v-1.4c0-2.3,0-4,1.1-5.3c0.5-0.5,1.4-0.9,2.6-1.1l0.2,0V9.4c0,0,0-1.5,0.9-2.6c0.5-0.3,1.2-0.7,2-0.7
	c1.9,0,2.5,1.5,2.5,2.5v3.8l0.3-0.3c0.1-0.1,0.5-0.1,0.8-0.1c1.1,0,1.7,0.4,2,0.7c0.1,0.2,0.2,0.3,0.3,0.5c0.1,0.1,0.2,0.3,0.3,0.5
	l0.1,0.2l0.2-0.1c0.3-0.2,0.7-0.2,1.1-0.2c0.9,0,1.7,0.4,2,0.7c0.4,0.4,0.7,1.1,0.7,1.4v0.2h1.4c2.3,0.6,2.5,3.6,2.5,4.5v4.9
	c0,3.2-0.6,5.6-1.7,7.1L20.2,32z"/>
</svg>
