<?xml version="1.0" encoding="utf-8"?>
<!-- Generator: Adobe Illustrator 21.0.0, SVG Export Plug-In . SVG Version: 6.00 Build 0)  -->
<svg version="1.1" id="Слой_1" xmlns="http://www.w3.org/2000/svg" xmlns:xlink="http://www.w3.org/1999/xlink" x="0px" y="0px"
	 viewBox="0 0 75.5 73.9" style="enable-background:new 0 0 75.5 73.9;" xml:space="preserve">
<style type="text/css">
	.st0{opacity:0.9;fill:#19181D;enable-background:new    ;}
	.st1{fill:#FFFFFF;}
</style>
<circle class="st0" cx="37.8" cy="36.8" r="35.8"/>
<g>
	<path class="st1" d="M49.5,51.6L24.2,26.2c-0.8-0.8-0.8-2,0-2.8l0,0c0.8-0.8,2-0.8,2.8,0l25.4,25.4c0.8,0.8,0.8,2,0,2.8v0
		C51.5,52.4,50.3,52.4,49.5,51.6z"/>
	<path class="st1" d="M24.2,48.8l25.4-25.4c0.8-0.8,2-0.8,2.8,0v0c0.8,0.8,0.8,2,0,2.8L26.9,51.6c-0.8,0.8-2,0.8-2.8,0l0,0
		C23.4,50.8,23.4,49.6,24.2,48.8z"/>
</g>
</svg>
