<?xml version="1.0" encoding="utf-8"?>
<!-- Generator: Adobe Illustrator 21.0.0, SVG Export Plug-In . SVG Version: 6.00 Build 0)  -->
<svg version="1.1" id="Слой_1" xmlns="http://www.w3.org/2000/svg" xmlns:xlink="http://www.w3.org/1999/xlink" x="0px" y="0px"
	 viewBox="0 0 23 22.8" style="enable-background:new 0 0 23 22.8;" xml:space="preserve">
<style type="text/css">
	.st0{fill:none;stroke:#878787;stroke-miterlimit:10;}
	.st1{fill:#878787;}
</style>
<circle class="st0" cx="11.5" cy="11.6" r="10.8"/>
<g>
	<path class="st1" d="M7.1,16.2L7.1,16.2c-0.2-0.2-0.2-0.5,0-0.7L15.6,7c0.2-0.2,0.5-0.2,0.7,0v0c0.2,0.2,0.2,0.5,0,0.7l-8.5,8.5
		C7.6,16.4,7.3,16.4,7.1,16.2z"/>
	<path class="st1" d="M16.4,16.1L16.4,16.1c-0.2,0.2-0.5,0.2-0.7,0L7.2,7.7C7,7.5,7,7.2,7.2,7l0,0c0.2-0.2,0.5-0.2,0.7,0l8.5,8.5
		C16.6,15.6,16.6,16,16.4,16.1z"/>
</g>
</svg>
