<?xml version="1.0" encoding="utf-8"?>
<!-- Generator: Adobe Illustrator 21.0.0, SVG Export Plug-In . SVG Version: 6.00 Build 0)  -->
<svg version="1.1" id="Слой_1" xmlns="http://www.w3.org/2000/svg" xmlns:xlink="http://www.w3.org/1999/xlink" x="0px" y="0px"
	 viewBox="0 0 38.8 30.8" style="enable-background:new 0 0 38.8 30.8;" xml:space="preserve">
<style type="text/css">
	.st0{fill:#C8C8D4;}
	.st1{fill:#1EAAE0;}
</style>
<g>
	<g>
		<path class="st0" d="M36.7,0.3H2.1C1.1,0.3,0.4,1.1,0.4,2v3.8c0,0.9,0.8,1.7,1.7,1.7h0.4v21.4c0,0.9,0.8,1.7,1.7,1.7h30.5
			c0.9,0,1.7-0.8,1.7-1.7V7.4h0.4c0.9,0,1.7-0.8,1.7-1.7V2C38.4,1.1,37.6,0.3,36.7,0.3z M34.6,28.8H4.1V7.4h30.5L34.6,28.8
			C34.6,28.8,34.6,28.8,34.6,28.8z M36.7,5.7h-1.2H3.3H2.1V2h34.6L36.7,5.7C36.7,5.7,36.7,5.7,36.7,5.7z"/>
	</g>
</g>
<g>
	<g>
		<path class="st1" d="M22.2,18.5v-1.8c0-1.5-1.3-2.8-2.8-2.8c-1.5,0-2.8,1.3-2.8,2.8v1.8c-1.1,0.3-1.9,1.2-1.9,2.4v2.9
			c0,1.3,1.1,2.4,2.4,2.4h4.5c1.3,0,2.4-1.1,2.4-2.4v-2.9C24,19.7,23.2,18.7,22.2,18.5z M18.1,16.7c0-0.7,0.6-1.3,1.3-1.3
			c0.7,0,1.3,0.6,1.3,1.3v1.8h-2.6L18.1,16.7L18.1,16.7z M22.5,23.7c0,0.5-0.4,0.9-0.9,0.9h-4.5c-0.5,0-0.9-0.4-0.9-0.9v-2.9
			c0-0.5,0.4-0.9,0.9-0.9h4.5c0.5,0,0.9,0.4,0.9,0.9V23.7z"/>
	</g>
</g>
<g>
	<g>
		<path class="st0" d="M14.5,10H7.2c-0.4,0-0.8,0.3-0.8,0.8s0.3,0.8,0.8,0.8h7.3c0.4,0,0.8-0.3,0.8-0.8C15.3,10.3,14.9,10,14.5,10z"
			/>
	</g>
</g>
<g>
	<g>
		<path class="st0" d="M10.9,13.3H7.2c-0.4,0-0.8,0.3-0.8,0.8s0.3,0.8,0.8,0.8h3.7c0.4,0,0.8-0.3,0.8-0.8S11.3,13.3,10.9,13.3z"/>
	</g>
</g>
</svg>
