<?xml version="1.0" encoding="utf-8"?>
<!-- Generator: Adobe Illustrator 21.0.0, SVG Export Plug-In . SVG Version: 6.00 Build 0)  -->
<svg version="1.1" id="Capa_1" xmlns="http://www.w3.org/2000/svg" xmlns:xlink="http://www.w3.org/1999/xlink" x="0px" y="0px"
	 viewBox="0 0 253.5 235.5" style="enable-background:new 0 0 253.5 235.5;" xml:space="preserve">
<style type="text/css">
	.st0{fill:#52AFD4;}
</style>
<path class="st0" d="M250.7,6.5c-1.2-2.6-3.9-4.3-6.8-4.3H11.5C8.6,2.2,6,3.9,4.7,6.5c-1.2,2.6-0.8,5.7,1,8l89.4,108.4v99.9
	c0,2.6,1.3,5,3.5,6.4c1.2,0.7,2.6,1.1,4,1.1c1.1,0,2.3-0.3,3.3-0.8l50.2-24.9c2.6-1.3,4.2-3.9,4.2-6.7l0.1-75.1l89.4-108.4
	C251.6,12.2,252,9.1,250.7,6.5z M147.1,115.4c-1.1,1.3-1.7,3-1.7,4.8l-0.1,73.1l-35.2,17.5v-90.5c0-1.7-0.6-3.4-1.7-4.8l-81-98.2
	h200.7L147.1,115.4z"/>
</svg>
