<?xml version="1.0" encoding="utf-8"?>
<!-- Generator: Adobe Illustrator 21.0.0, SVG Export Plug-In . SVG Version: 6.00 Build 0)  -->
<svg version="1.1" id="Capa_1" xmlns="http://www.w3.org/2000/svg" xmlns:xlink="http://www.w3.org/1999/xlink" x="0px" y="0px"
	 viewBox="0 0 67.3 61.1" style="enable-background:new 0 0 67.3 61.1;" xml:space="preserve">
<style type="text/css">
	.st0{fill:#FFFFFF;}
</style>
<g>
	<g>
		<path class="st0" d="M61.8,47.6H5.4c-2.3,0-4.1-1.8-4.1-4.1V5.4c0-2.3,1.8-4.1,4.1-4.1h56.5c2.3,0,4.1,1.8,4.1,4.1v38.1
			C65.9,45.8,64.1,47.6,61.8,47.6z M5.4,5.3c-0.1,0-0.1,0-0.1,0.1v38.1c0,0.1,0,0.1,0.1,0.1h56.5c0.1,0,0.1,0,0.1-0.1V5.4
			c0-0.1,0-0.1-0.1-0.1H5.4z"/>
	</g>
	<path class="st0" d="M32.4,52.8L32.4,52.8c-1.1,0-2-0.9-2-2v-5c0-1.1,0.9-2,2-2h0c1.1,0,2,0.9,2,2v5C34.4,51.9,33.5,52.8,32.4,52.8
		z"/>
	<path class="st0" d="M19.5,57.6L19.5,57.6c-0.4-1,0-2.2,1-2.6l11.1-4.8c1-0.4,2.2,0,2.6,1l0,0c0.4,1,0,2.2-1,2.6l-11.1,4.8
		C21.1,59.1,20,58.6,19.5,57.6z"/>
	<path class="st0" d="M45,57.8L45,57.8c-0.4,1-1.6,1.5-2.6,1.1l-11.2-4.4c-1-0.4-1.5-1.6-1.1-2.6l0,0c0.4-1,1.6-1.5,2.6-1.1
		l11.2,4.4C44.9,55.6,45.4,56.8,45,57.8z"/>
	<g>
		<path class="st0" d="M30.8,34.8l-5.9-9.3l-4.7,9c-0.5,0.9-1.7,0.8-2.1-0.1l-5.3-12.7l-2.7,10.4c-0.3,1-1.3,1.6-2.3,1.3l-0.3-0.1
			c-1-0.3-1.6-1.3-1.3-2.3l5.1-19.9c0.2-0.7,1.1-0.7,1.4-0.1l6.7,16.1l4.1-7.9c0.4-0.9,1.7-0.9,2.2-0.1l5.2,8.2l4.2-14.1
			c0.3-1.1,1.4-1.7,2.5-1.3l0,0c1.1,0.3,1.7,1.4,1.3,2.5l-5.9,19.9C32.8,35.6,31.4,35.7,30.8,34.8z"/>
	</g>
	<g>
		<path class="st0" d="M49.7,32.2c-4.6,0-8.3-3.7-8.3-8.3s3.7-8.3,8.3-8.3S58,19.4,58,24S54.3,32.2,49.7,32.2z M49.7,20.7
			c-1.8,0-3.3,1.5-3.3,3.3s1.5,3.3,3.3,3.3S53,25.8,53,24S51.5,20.7,49.7,20.7z"/>
	</g>
</g>
</svg>
