<?xml version="1.0" encoding="utf-8"?>
<!-- Generator: Adobe Illustrator 21.0.0, SVG Export Plug-In . SVG Version: 6.00 Build 0)  -->
<svg version="1.1" id="Capa_1" xmlns="http://www.w3.org/2000/svg" xmlns:xlink="http://www.w3.org/1999/xlink" x="0px" y="0px"
	 viewBox="0 0 949.3 949.3" style="enable-background:new 0 0 949.3 949.3;" xml:space="preserve">
<style type="text/css">
	.st0{fill:#FFFFFF;}
</style>
<image style="overflow:visible;" width="1920" height="1080" xlink:href="BFF3DAB7.jpg"  transform="matrix(1 0 0 1 -202 -48)">
</image>
<g>
	<path class="st0" d="M521.1,532.1h-56.5c-2.3,0-4.1-1.8-4.1-4.1v-38.1c0-2.3,1.8-4.1,4.1-4.1h56.5c2.3,0,4.1,1.8,4.1,4.1V528
		C525.2,530.3,523.3,532.1,521.1,532.1z M464.6,489.8c-0.1,0-0.1,0-0.1,0.1V528c0,0.1,0,0.1,0.1,0.1h56.5c0.1,0,0.1,0,0.1-0.1v-38.1
		c0-0.1,0-0.1-0.1-0.1H464.6z"/>
</g>
<path class="st0" d="M491.7,537.3L491.7,537.3c-1.1,0-2-0.9-2-2v-5c0-1.1,0.9-2,2-2l0,0c1.1,0,2,0.9,2,2v5
	C493.7,536.4,492.8,537.3,491.7,537.3z"/>
<path class="st0" d="M478.8,542.1L478.8,542.1c-0.4-1,0-2.2,1-2.6l11.1-4.8c1-0.4,2.2,0,2.6,1v0c0.4,1,0,2.2-1,2.6l-11.1,4.8
	C480.4,543.6,479.2,543.1,478.8,542.1z"/>
<path class="st0" d="M504.3,542.3L504.3,542.3c-0.4,1-1.6,1.5-2.6,1.1l-11.2-4.4c-1-0.4-1.5-1.6-1.1-2.6l0,0c0.4-1,1.6-1.5,2.6-1.1
	l11.2,4.4C504.2,540.1,504.7,541.3,504.3,542.3z"/>
</svg>
