<?xml version="1.0" encoding="utf-8"?>
<!-- Generator: Adobe Illustrator 21.0.0, SVG Export Plug-In . SVG Version: 6.00 Build 0)  -->
<svg version="1.1" id="Слой_1" xmlns="http://www.w3.org/2000/svg" xmlns:xlink="http://www.w3.org/1999/xlink" x="0px" y="0px"
	 viewBox="0 0 23.8 12.4" style="enable-background:new 0 0 23.8 12.4;" xml:space="preserve">
<style type="text/css">
	.st0{fill:#1EAAE0;}
</style>
<path class="st0" d="M0.3,1.7c0-0.8,0.7-1.5,1.5-1.5h18.1c0.8,0,1.5,0.7,1.5,1.5v1.9h1.3c0.5,0,0.9,0.4,0.9,0.9v3.4
	c0,0.5-0.4,0.9-0.9,0.9h-1.3v1.9c0,0.8-0.7,1.5-1.5,1.5H1.7c-0.8,0-1.5-0.7-1.5-1.5V1.7z M1.7,1.1c-0.3,0-0.6,0.3-0.6,0.6v9.1
	c0,0.3,0.3,0.6,0.6,0.6h3.7V1.1H1.7z M20.5,1.7c0-0.3-0.3-0.6-0.6-0.6H6.3v10.3h13.5c0.3,0,0.6-0.3,0.6-0.6V1.7z M22.7,4.5h-1.4V8
	h1.4l0-0.1L22.7,4.5z"/>
<path class="st0" d="M9.9,6.6c0-0.2,0.1-0.3,0.2-0.4l3-1.9c0.1-0.1,0.3-0.1,0.4,0c0.1,0.1,0.2,0.2,0.2,0.4V7l2.3-1.5
	c0.1-0.1,0.2-0.1,0.3-0.1c0.1,0,0.2,0.1,0.3,0.2c0,0.1,0.1,0.1,0.1,0.2c0,0.2-0.1,0.3-0.2,0.4l-3,1.9c-0.1,0-0.1,0.1-0.2,0.1
	c-0.1,0-0.1,0-0.2-0.1C13.1,8,13,7.9,13,7.7V5.5L10.6,7c-0.1,0.1-0.2,0.1-0.3,0.1C10.2,7,10.1,7,10,6.9C10,6.8,9.9,6.7,9.9,6.6z"/>
</svg>
