<?xml version="1.0" encoding="utf-8"?>
<!-- Generator: Adobe Illustrator 21.0.0, SVG Export Plug-In . SVG Version: 6.00 Build 0)  -->
<svg version="1.1" id="Слой_1" xmlns="http://www.w3.org/2000/svg" xmlns:xlink="http://www.w3.org/1999/xlink" x="0px" y="0px"
	 viewBox="0 0 45.5 39" style="enable-background:new 0 0 45.5 39;" xml:space="preserve">
<style type="text/css">
	.st0{fill:#1EAAE0;stroke:#1EAAE0;stroke-width:0.5;stroke-miterlimit:10;}
</style>
<g>
	<path class="st0" d="M34.5,2.8H11.1L6.6,16.3H39L34.5,2.8z M11.9,3.8h22l3.8,11.4H8L11.9,3.8z"/>
	<path class="st0" d="M44.6,19.5l-0.2-0.1l-7.3-19H8.4L1.1,19.6l-0.2,0.1l0.9,2.6l0,0v0.4H19v12.5H8.6V39h28.8v-3.9H26.7V22.6h16.7
		v-0.3l0.1,0L44.6,19.5z M9.1,1.5h27.3L43,18.6H2.5L9.1,1.5z M36.4,36.1V38H9.6v-1.9H19h7.7H36.4z M25.7,35.1H20V22.6h5.7V35.1z
		 M19,21.6H2.6l-0.7-2h41.6l-0.8,2h-16H19z"/>
</g>
</svg>
