<?xml version="1.0" encoding="utf-8"?>
<!-- Generator: Adobe Illustrator 21.0.0, SVG Export Plug-In . SVG Version: 6.00 Build 0)  -->
<svg version="1.1" id="Слой_1" xmlns="http://www.w3.org/2000/svg" xmlns:xlink="http://www.w3.org/1999/xlink" x="0px" y="0px"
	 viewBox="0 0 23.8 14.9" style="enable-background:new 0 0 23.8 14.9;" xml:space="preserve">
<style type="text/css">
	.st0{fill:#1EAAE0;}
</style>
<path class="st0" d="M23.5,14.8h-23c-0.2,0-0.3-0.1-0.3-0.3v-14c0-0.2,0.1-0.3,0.3-0.3h23c0.2,0,0.3,0.1,0.3,0.3v14
	C23.8,14.7,23.7,14.8,23.5,14.8z M1.6,13.8h21c0.2,0,0.3-0.1,0.3-0.3v-12c0-0.2-0.1-0.3-0.3-0.3h-21c-0.2,0-0.3,0.1-0.3,0.3v12
	C1.2,13.7,1.4,13.8,1.6,13.8z"/>
<path class="st0" d="M20.6,5.1l-2.2-2c-0.2-0.2-0.2-0.5,0-0.7l0,0c0.2-0.2,0.5-0.2,0.7,0l2.2,2c0.2,0.2,0.2,0.5,0,0.7l0,0
	C21.2,5.2,20.8,5.3,20.6,5.1z"/>
<path class="st0" d="M19.7,8.1l-5-4.5c-0.2-0.2-0.2-0.5,0-0.7l0,0c0.2-0.2,0.5-0.2,0.7,0l5,4.5c0.2,0.2,0.2,0.5,0,0.7v0
	C20.2,8.3,19.9,8.3,19.7,8.1z"/>
</svg>
