<?xml version="1.0" encoding="utf-8"?>
<!-- Generator: Adobe Illustrator 21.0.0, SVG Export Plug-In . SVG Version: 6.00 Build 0)  -->
<svg version="1.1" id="Слой_1" xmlns="http://www.w3.org/2000/svg" xmlns:xlink="http://www.w3.org/1999/xlink" x="0px" y="0px"
	 viewBox="0 0 35 36.6" style="enable-background:new 0 0 35 36.6;" xml:space="preserve">
<style type="text/css">
	.st0{fill:#FFFFFF;}
</style>
<path class="st0" d="M33.2,14.3l-2.5-0.4l0-0.1c-0.3-0.8-0.6-1.6-1-2.4l0-0.1l1.5-2.1c0.6-0.8,0.5-1.9-0.2-2.6l-2.2-2.2
	c-0.4-0.4-0.9-0.6-1.4-0.6c-0.4,0-0.8,0.1-1.2,0.4L24,5.8l-0.1,0c-0.8-0.4-1.6-0.8-2.4-1l-0.1,0l-0.4-2.5c-0.2-1-1-1.7-2-1.7h-3.1
	c-1,0-1.8,0.7-2,1.7l-0.4,2.6l-0.1,0c-0.8,0.3-1.6,0.6-2.3,1l-0.1,0L8.9,4.3C8.5,4.1,8.1,4,7.7,4c-0.5,0-1,0.2-1.4,0.6L4.1,6.7
	C3.4,7.4,3.3,8.5,3.9,9.3l1.5,2.1l0,0.1c-0.4,0.7-0.7,1.5-1,2.4l0,0.1l-2.5,0.4c-1,0.2-1.7,1-1.7,2v3.1c0,1,0.7,1.8,1.7,2l2.6,0.4
	l0,0.1c0.3,0.8,0.6,1.6,1,2.3l0,0.1L4,26.5c-0.6,0.8-0.5,1.9,0.2,2.6l2.2,2.2c0.4,0.4,0.9,0.6,1.4,0.6c0.4,0,0.8-0.1,1.2-0.4
	l2.1-1.5l0.1,0c0.7,0.4,1.5,0.7,2.3,0.9l0.1,0l0.4,2.5c0.2,1,1,1.7,2,1.7H19c1,0,1.8-0.7,2-1.7l0.4-2.5l0.1,0c0.8-0.3,1.6-0.6,2.4-1
	l0.1,0l2.1,1.5c0.3,0.2,0.7,0.4,1.2,0.4c0.5,0,1-0.2,1.4-0.6l2.2-2.2c0.7-0.7,0.8-1.8,0.2-2.6l-1.5-2.1l0-0.1c0.4-0.8,0.7-1.6,1-2.4
	l0-0.1l2.5-0.4c1-0.2,1.7-1,1.7-2v-3.1C34.8,15.3,34.1,14.5,33.2,14.3z M29.1,20.8c-0.3,1.1-0.7,2.1-1.3,3.1c-0.2,0.3-0.2,0.6,0,0.9
	l1.8,2.5c0.1,0.1,0.1,0.3,0,0.4L27.5,30c-0.1,0.1-0.3,0.1-0.4,0l-2.5-1.8c-0.3-0.2-0.6-0.2-0.9,0c-1,0.6-2,1-3.1,1.3
	c-0.3,0.1-0.6,0.3-0.6,0.7l-0.5,3.1c0,0.2-0.2,0.3-0.3,0.3H16c-0.2,0-0.3-0.1-0.3-0.3l-0.5-3.1c-0.1-0.3-0.3-0.6-0.6-0.7
	c-1-0.3-2.1-0.7-3-1.2c-0.1-0.1-0.3-0.1-0.4-0.1c-0.2,0-0.3,0.1-0.5,0.2L8,30.1c-0.2,0.1-0.3,0.1-0.4,0l-2.2-2.2
	c-0.1-0.1-0.1-0.3,0-0.4l1.8-2.5c0.2-0.3,0.2-0.6,0-0.9c-0.6-1-1-2-1.3-3.1c-0.1-0.3-0.3-0.6-0.7-0.6l-3.1-0.5
	c-0.2,0-0.3-0.2-0.3-0.3v-3.1c0-0.2,0.1-0.3,0.3-0.3l3-0.5c0.3-0.1,0.6-0.3,0.7-0.6c0.3-1.1,0.7-2.2,1.3-3.1c0.2-0.3,0.1-0.6,0-0.9
	L5.3,8.4C5.2,8.2,5.2,8,5.3,7.9l2.2-2.2c0.1-0.1,0.3-0.1,0.4,0l2.5,1.8c0.3,0.2,0.6,0.2,0.9,0c1-0.6,2-1,3.1-1.3
	C14.7,6.1,15,5.9,15,5.6l0.5-3.1c0-0.2,0.2-0.3,0.3-0.3H19c0.2,0,0.3,0.1,0.3,0.3l0.5,3c0.1,0.3,0.3,0.6,0.6,0.7
	c1.1,0.3,2.2,0.7,3.2,1.3c0.3,0.2,0.6,0.1,0.9,0l2.5-1.8c0.2-0.1,0.3-0.1,0.4,0l2.2,2.2c0.1,0.1,0.1,0.3,0,0.4l-1.8,2.5
	c-0.2,0.3-0.2,0.6,0,0.9c0.6,1,1,2,1.3,3.1c0.1,0.3,0.3,0.6,0.7,0.6l3.1,0.5c0.2,0,0.3,0.2,0.3,0.3v3.1l0,0.2h0l0,0.1
	c-0.1,0.1-0.1,0.1-0.2,0.1l-3.1,0.5C29.5,20.3,29.2,20.5,29.1,20.8z"/>
<path class="st0" d="M17.5,10.5c-4.1,0-7.4,3.3-7.4,7.4s3.3,7.4,7.4,7.4c4.1,0,7.4-3.3,7.4-7.4S21.6,10.5,17.5,10.5z M17.5,23.6
	c-3.2,0-5.7-2.6-5.7-5.7s2.6-5.7,5.7-5.7s5.7,2.6,5.7,5.7S20.7,23.6,17.5,23.6z"/>
</svg>
