<?xml version="1.0" encoding="utf-8"?>
<!-- Generator: Adobe Illustrator 21.0.0, SVG Export Plug-In . SVG Version: 6.00 Build 0)  -->
<svg version="1.1" id="Capa_1" xmlns="http://www.w3.org/2000/svg" xmlns:xlink="http://www.w3.org/1999/xlink" x="0px" y="0px"
	 viewBox="0 0 66.3 59.7" style="enable-background:new 0 0 66.3 59.7;" xml:space="preserve">
<style type="text/css">
	.st0{fill:#747283;}
</style>
<path class="st0" d="M55.6,47.7L44.4,36.6l-0.2-0.8c-0.2-1-0.9-1.7-1.8-2c-0.9-0.3-1.9,0-2.6,0.7l-1,1l-3.1-3.1l9.7-9.7
	c0.8-0.8,1.9-1.5,3-1.8c1-0.3,1.9-0.9,2.7-1.6c1.3-1.3,2-3,2-4.8c0-1.8-0.8-3.5-2.1-4.8c-0.2-0.2-0.6-0.3-0.9-0.2
	c-0.3,0.1-0.6,0.3-0.7,0.6l-1.1,3.5c-0.1,0.4-0.4,0.7-0.8,0.9c-0.4,0.2-0.8,0.2-1.2,0.1c-0.4-0.1-0.7-0.4-0.9-0.8
	c-0.2-0.4-0.2-0.8-0.1-1.2l1.1-3.4c0.1-0.3,0-0.7-0.2-0.9c-0.2-0.3-0.5-0.4-0.9-0.3c-1.2,0.2-2.4,0.7-3.3,1.6
	c-1.6,1.4-2.5,3.6-2.2,5.8c0.2,2.2-0.5,4.3-2.1,5.9L31,27.6L17.6,14.2l0.2-2.8c0-0.4-0.2-0.7-0.5-0.9l-4-2.3
	c-0.4-0.2-0.8-0.2-1.1,0.2l-1.7,1.7c-0.3,0.3-0.4,0.8-0.2,1.1l2.3,4c0.2,0.3,0.5,0.5,0.8,0.5c0,0,0,0,0.1,0l2.8-0.2L29.7,29L20,38.6
	c-0.8,0.8-1.9,1.5-3,1.8c-1,0.3-1.9,0.9-2.7,1.6c-1.3,1.3-2,3-2,4.8c0,1.8,0.8,3.5,2.1,4.8c0.2,0.2,0.6,0.3,0.9,0.2
	c0.3-0.1,0.6-0.3,0.7-0.6l1.1-3.5c0.3-0.8,1.2-1.3,2-1c0.4,0.1,0.7,0.4,0.9,0.8c0.2,0.4,0.2,0.8,0.1,1.2l-1.1,3.4
	c-0.1,0.3,0,0.7,0.2,0.9c0.2,0.2,0.4,0.3,0.7,0.3c0.1,0,0.1,0,0.2,0c1.2-0.2,2.4-0.7,3.3-1.6c1.6-1.4,2.5-3.6,2.2-5.8
	c-0.2-2.2,0.5-4.3,2.1-5.9l6.5-6.5l3.1,3.1l-1,1c-0.7,0.7-0.9,1.7-0.7,2.6c0.3,0.9,1,1.6,2,1.8l0.8,0.2l11.1,11.1
	c0.8,0.8,1.9,1.2,2.9,1.2c1.1,0,2.1-0.4,2.9-1.2C57.2,51.9,57.2,49.3,55.6,47.7z M15.7,13.7l-1.8,0.1L12.3,11l0.7-0.7l2.9,1.7
	L15.7,13.7z M26.5,38.8c-2,2-3,4.7-2.7,7.5c0.2,1.6-0.4,3.1-1.6,4.1c-0.2,0.2-0.5,0.4-0.7,0.5l0.5-1.6c0.3-0.9,0.2-1.8-0.2-2.7
	c-0.4-0.8-1.2-1.4-2.1-1.7c-0.3-0.1-0.7-0.2-1-0.2c-0.6,0-1.1,0.1-1.6,0.4c-0.8,0.4-1.4,1.2-1.7,2.1L14.8,49
	c-0.3-0.6-0.5-1.3-0.5-2.1c0-1.3,0.5-2.5,1.4-3.5c0.5-0.5,1.2-0.9,1.9-1.2c1.4-0.5,2.7-1.3,3.8-2.3l17.5-17.5c2-2,3-4.7,2.7-7.5
	c-0.2-1.6,0.4-3.1,1.6-4.1c0.2-0.2,0.5-0.4,0.7-0.5L43.4,12c-0.3,0.9-0.2,1.8,0.2,2.7c0.4,0.8,1.2,1.4,2.1,1.7
	c0.9,0.3,1.8,0.2,2.7-0.2c0.8-0.4,1.4-1.2,1.7-2.1l0.5-1.7c0.3,0.6,0.5,1.3,0.5,2.1c0,1.3-0.5,2.5-1.4,3.5c-0.5,0.5-1.2,0.9-1.9,1.2
	c-1.4,0.5-2.7,1.3-3.8,2.3L26.5,38.8z M38.2,40.4c-0.4-0.1-0.5-0.4-0.5-0.5c0-0.1-0.1-0.4,0.2-0.7l3.4-3.4c0.2-0.2,0.4-0.2,0.5-0.2
	c0.1,0,0.2,0,0.2,0c0.1,0,0.4,0.2,0.5,0.5l0.1,0.6l-3.7,3.7L38.2,40.4L38.2,40.4z M54.2,52.2c-0.9,0.9-2.3,0.9-3.1,0L40.4,41.5
	l3.1-3.1l10.7,10.7c0.4,0.4,0.6,1,0.6,1.6S54.6,51.8,54.2,52.2z"/>
</svg>
