<?xml version="1.0" encoding="utf-8"?>
<!-- Generator: Adobe Illustrator 21.0.0, SVG Export Plug-In . SVG Version: 6.00 Build 0)  -->
<svg version="1.1" id="Слой_1" xmlns="http://www.w3.org/2000/svg" xmlns:xlink="http://www.w3.org/1999/xlink" x="0px" y="0px"
	 viewBox="0 0 47.9 51.2" style="enable-background:new 0 0 47.9 51.2;" xml:space="preserve">
<style type="text/css">
	.st0{fill:#C8C8D4;}
	.st1{fill:#3AB5E4;}
</style>
<g>
	<polygon class="st0" points="2.4,46.6 2.4,11.1 43.7,11.1 43.7,27.6 45.7,27.6 45.7,9.1 0.4,9.1 0.4,48.6 10.9,48.6 10.9,46.6 	"/>
	<rect x="4.2" y="4.5" class="st0" width="37.1" height="2.1"/>
	<rect x="8" y="0.6" class="st0" width="30.1" height="2.1"/>
	<g>
		<g>
			<path class="st1" d="M19.1,39.5c1.5,0,2.7,0.5,3.6,1.4c0.9,0.9,1.3,2.2,1.3,3.8c0,1.8-0.5,3.3-1.4,4.3c-1,1-2.3,1.6-4,1.6
				c-1.6,0-2.9-0.3-3.8-1v-1.9c0.5,0.4,1,0.6,1.7,0.9c0.7,0.2,1.4,0.3,2,0.3c1.2,0,2.1-0.3,2.7-1c0.6-0.7,1-1.6,1-2.9
				c0-2.5-1.2-3.7-3.7-3.7c-0.6,0-1.5,0.1-2.5,0.4l-0.9-0.7l0.5-8.3H23v1.9h-5.8l-0.4,5.3C17.6,39.5,18.3,39.5,19.1,39.5z"/>
			<path class="st1" d="M35.9,41.4c0,3.1-0.4,5.3-1.2,6.8c-0.8,1.5-2,2.3-3.6,2.3c-1.6,0-2.8-0.8-3.6-2.3s-1.2-3.8-1.2-6.8
				c0-3.1,0.4-5.4,1.2-6.9s2-2.2,3.6-2.2c1.6,0,2.8,0.8,3.6,2.3C35.5,36.2,35.9,38.4,35.9,41.4z M27.9,41.4c0,2.6,0.2,4.4,0.7,5.6
				c0.5,1.2,1.3,1.8,2.4,1.8c1.1,0,1.9-0.6,2.4-1.8c0.5-1.2,0.7-3.1,0.7-5.6s-0.2-4.4-0.7-5.6C32.9,34.6,32.1,34,31,34
				c-1.1,0-1.9,0.6-2.4,1.7C28.2,36.9,27.9,38.8,27.9,41.4z"/>
			<path class="st1" d="M43.4,40.7h4.1v1.7h-4.1v5.2H42v-5.2h-4.1v-1.7H42v-5.2h1.4V40.7z"/>
		</g>
	</g>
</g>
</svg>
