<?xml version="1.0" encoding="utf-8"?>
<!-- Generator: Adobe Illustrator 21.0.0, SVG Export Plug-In . SVG Version: 6.00 Build 0)  -->
<svg version="1.1" id="Слой_1" xmlns="http://www.w3.org/2000/svg" xmlns:xlink="http://www.w3.org/1999/xlink" x="0px" y="0px"
	 viewBox="0 0 47.4 47.1" style="enable-background:new 0 0 47.4 47.1;" xml:space="preserve">
<style type="text/css">
	.st0{fill:#C8C8D4;}
	.st1{fill:#32B1E3;}
</style>
<g>
	<g>
		<path class="st0" d="M47.3,47H0.1V-0.1h47.1V47z M2.1,45h43.1V1.9H2.1V45z"/>
	</g>
	<g>
		<rect x="1.1" y="10.3" class="st0" width="44.3" height="2"/>
	</g>
	<g>
		<rect x="15.3" y="5" class="st0" width="2.8" height="2.8"/>
	</g>
	<g>
		<rect x="29.3" y="5" class="st0" width="2.8" height="2.8"/>
	</g>
	<g>
		<g>
			<path class="st1" d="M29.5,26.6c0,6.4-2.5,9.6-7.4,9.6c-0.9,0-1.6-0.1-2.1-0.2v-1.6c0.6,0.2,1.3,0.3,2,0.3c1.8,0,3.1-0.6,4.1-1.7
				c0.9-1.1,1.4-2.8,1.5-5.1h-0.1c-0.4,0.6-1,1.1-1.6,1.4c-0.7,0.3-1.4,0.5-2.3,0.5c-1.4,0-2.6-0.4-3.4-1.3
				c-0.9-0.9-1.3-2.1-1.3-3.6c0-1.7,0.5-3,1.4-4s2.2-1.5,3.8-1.5c1.1,0,2.1,0.3,2.9,0.9c0.8,0.6,1.5,1.4,1.9,2.5
				S29.5,25.1,29.5,26.6z M24,21c-1.1,0-1.9,0.3-2.5,1s-0.9,1.6-0.9,2.9c0,1.1,0.3,1.9,0.8,2.5c0.5,0.6,1.4,0.9,2.4,0.9
				c0.7,0,1.3-0.1,1.9-0.4c0.6-0.3,1-0.7,1.3-1.1c0.3-0.5,0.5-1,0.5-1.5c0-0.8-0.2-1.5-0.5-2.2s-0.7-1.2-1.3-1.6
				C25.4,21.2,24.7,21,24,21z"/>
		</g>
	</g>
</g>
</svg>
