<?xml version="1.0" encoding="utf-8"?>
<!-- Generator: Adobe Illustrator 21.0.0, SVG Export Plug-In . SVG Version: 6.00 Build 0)  -->
<svg version="1.1" id="Слой_1" xmlns="http://www.w3.org/2000/svg" xmlns:xlink="http://www.w3.org/1999/xlink" x="0px" y="0px"
	 viewBox="0 0 35 36.6" style="enable-background:new 0 0 35 36.6;" xml:space="preserve">
<style type="text/css">
	.st0{fill:#FFFFFF;}
</style>
<g>
	<g>
		<path class="st0" d="M17.1,3.5l-7-2.7c-0.2-0.1-0.5,0-0.7,0.1S9.2,1.3,9.3,1.5L10,4.9c0,0,0,0,0,0c-2.8,1.2-5.1,3.2-6.7,5.8
			c-1.6,2.6-2.5,5.6-2.3,8.7c0.3,6.5,4.6,11.9,10.6,13.8c0.1-0.2,0.3-0.4,0.4-0.6c0,0,0,0,0,0c0-0.2,0.1-0.4,0.3-0.5
			c-5.7-1.6-9.8-6.7-10-12.7C2,13.7,5.2,8.5,10.3,6.2l0.7,3.4c0.1,0.2,0.2,0.4,0.5,0.5s0.5,0,0.6-0.2l5.2-5.4
			c0.2-0.2,0.2-0.4,0.2-0.6C17.5,3.7,17.3,3.5,17.1,3.5z M12.1,8.1l-1.2-5.7l4.9,1.9L12.1,8.1z"/>
		<path class="st0" d="M33.6,17.6c0-0.9-0.2-1.8-0.3-2.6c-1.1-5-4.7-9.1-9.5-10.9c-0.1,0.4-0.3,0.8-0.6,1.2
			c5.2,1.8,8.9,6.7,9.2,12.4c0.2,5.6-3,10.8-8.1,13.1l-0.7-3.4c-0.1-0.2-0.2-0.4-0.5-0.5c-0.2-0.1-0.5,0-0.6,0.2l-5.2,5.4
			c-0.2,0.2-0.2,0.4-0.2,0.6c0,0.2,0.2,0.4,0.4,0.5l7,2.7c0.1,0.1,0.3,0.1,0.4,0c0.4-0.1,0.6-0.4,0.5-0.8l-0.7-3.3c0,0,0,0,0,0
			c2.8-1.2,5.1-3.2,6.7-5.8C32.9,23.7,33.7,20.7,33.6,17.6z M18.7,32.6l3.7-3.8l1.2,5.7L18.7,32.6z"/>
	</g>
</g>
</svg>
