<?xml version="1.0" encoding="utf-8"?>
<!-- Generator: Adobe Illustrator 21.0.0, SVG Export Plug-In . SVG Version: 6.00 Build 0)  -->
<svg version="1.1" id="Слой_1" xmlns="http://www.w3.org/2000/svg" xmlns:xlink="http://www.w3.org/1999/xlink" x="0px" y="0px"
	 viewBox="0 0 50 49.3" style="enable-background:new 0 0 50 49.3;" xml:space="preserve">
<style type="text/css">
	.st0{fill:#C8C8D4;}
	.st1{fill:#3AB5E4;}
</style>
<g>
	<path class="st0" d="M36.2,0.5l-11.5,6L12.2,0v0.5L12,0.3L0.4,7l0.2,0.3H0.3v40.8l13.8-7.2V3.3l9.2,4.8v16h2V8.4l9.8-5.1v17.9h2
		V3.3l10,5.2v21.4h2V7.2L36.2,0.5z M2.3,44.8V8.1l9.8-5.6v37.2L2.3,44.8z"/>
	<g>
		<g>
			<path class="st1" d="M21.7,30.5c1.3,0,2.2,0.4,3,1.1c0.7,0.8,1.1,1.8,1.1,3.1c0,0.9-0.2,1.7-0.6,2.4c-0.4,0.7-1.1,1.4-2,2
				c1.1,0.7,1.9,1.4,2.4,2.2c0.5,0.8,0.7,1.6,0.7,2.6c0,1.5-0.4,2.6-1.2,3.5c-0.8,0.9-1.9,1.3-3.3,1.3c-1.5,0-2.6-0.4-3.4-1.2
				c-0.8-0.8-1.2-2-1.2-3.5c0-2,1-3.6,2.9-4.7c-0.9-0.6-1.5-1.3-1.9-2c-0.4-0.7-0.6-1.5-0.6-2.4c0-1.3,0.4-2.3,1.1-3.1
				C19.4,30.9,20.4,30.5,21.7,30.5z M18.7,44c0,1,0.3,1.7,0.8,2.3c0.5,0.5,1.3,0.8,2.2,0.8c0.9,0,1.7-0.3,2.2-0.8s0.8-1.3,0.8-2.3
				c0-0.8-0.2-1.5-0.7-2.1c-0.5-0.6-1.3-1.2-2.6-1.8c-0.9,0.5-1.6,1.1-2,1.7S18.7,43.1,18.7,44z M21.6,32.2c-0.8,0-1.4,0.2-1.8,0.7
				c-0.4,0.5-0.7,1.1-0.7,1.9c0,0.7,0.2,1.4,0.6,1.9c0.4,0.5,1.1,1.1,2,1.6c0.9-0.5,1.5-1,1.9-1.6c0.4-0.6,0.6-1.2,0.6-1.9
				c0-0.8-0.2-1.5-0.7-1.9S22.4,32.2,21.6,32.2z"/>
			<path class="st1" d="M37.2,39.6c0,3.1-0.4,5.3-1.1,6.8c-0.7,1.5-1.9,2.3-3.4,2.3c-1.5,0-2.6-0.8-3.4-2.3
				c-0.8-1.5-1.2-3.8-1.2-6.8c0-3.1,0.4-5.4,1.1-6.9c0.7-1.5,1.9-2.2,3.4-2.2c1.5,0,2.6,0.8,3.4,2.3C36.8,34.4,37.2,36.7,37.2,39.6z
				 M29.7,39.6c0,2.6,0.2,4.4,0.7,5.6c0.5,1.2,1.2,1.8,2.2,1.8c1,0,1.8-0.6,2.3-1.8c0.5-1.2,0.7-3.1,0.7-5.6s-0.2-4.4-0.7-5.6
				c-0.5-1.2-1.2-1.8-2.3-1.8c-1,0-1.8,0.6-2.2,1.7C29.9,35.2,29.7,37,29.7,39.6z"/>
			<path class="st1" d="M44.3,38.9h3.9v1.7h-3.9v5.2H43v-5.2h-3.9v-1.7H43v-5.2h1.3V38.9z"/>
		</g>
	</g>
</g>
</svg>
