<?xml version="1.0" encoding="utf-8"?>
<!-- Generator: Adobe Illustrator 21.0.0, SVG Export Plug-In . SVG Version: 6.00 Build 0)  -->
<svg version="1.1" id="Слой_1" xmlns="http://www.w3.org/2000/svg" xmlns:xlink="http://www.w3.org/1999/xlink" x="0px" y="0px"
	 viewBox="0 0 39.6 49.2" style="enable-background:new 0 0 39.6 49.2;" xml:space="preserve">
<style type="text/css">
	.st0{fill:#C8C8D4;stroke:#C8C8D4;stroke-width:0.75;stroke-miterlimit:10;}
	.st1{fill:#1EAAE0;}
	.st2{fill:#C8C8D4;}
	.st3{fill:none;stroke:#C8C8D4;stroke-width:1.8;stroke-miterlimit:10;}
</style>
<g>
	<g>
		<g>
			<path class="st0" d="M38.3,0.7H1.5C1.2,0.7,1,1,1,1.4v46.4c0,0.4,0.2,0.7,0.6,0.7h36.7c0.4,0,0.6-0.3,0.6-0.7V1.4
				C38.8,1,38.6,0.7,38.3,0.7z M37.7,47.1H2.1V2.2h35.5V47.1z"/>
		</g>
	</g>
</g>
<path class="st1" d="M21,19c-0.3,0-0.6-0.3-0.6-0.6V7.7c0-0.3,0.3-0.6,0.6-0.6h10.7c0.3,0,0.6,0.3,0.6,0.6v10.7
	c0,0.3-0.3,0.6-0.6,0.6H21z M22.5,17.8h7.9l-3.9-3.9L22.5,17.8z M27.3,13.1l3.9,3.9V9.1L27.3,13.1z M21.7,17l3.9-3.9l-3.9-3.9V17z
	 M26.5,12.3l3.9-3.9h-7.9L26.5,12.3z"/>
<g>
	<g>
		<g>
			<path class="st2" d="M21,23.7c-0.3,0-0.6-0.3-0.6-0.6s0.3-0.6,0.6-0.6h10.7c0.3,0,0.6,0.3,0.6,0.6s-0.3,0.6-0.6,0.6H21z"/>
		</g>
	</g>
</g>
<g>
	<g>
		<g>
			<path class="st2" d="M7.5,23.7c-0.3,0-0.6-0.3-0.6-0.6s0.3-0.6,0.6-0.6h10.7c0.3,0,0.6,0.3,0.6,0.6s-0.3,0.6-0.6,0.6H7.5z"/>
		</g>
	</g>
</g>
<g>
	<g>
		<g>
			<path class="st2" d="M21,26.6c-0.3,0-0.6-0.3-0.6-0.6c0-0.3,0.3-0.6,0.6-0.6h10.7c0.3,0,0.6,0.3,0.6,0.6c0,0.3-0.3,0.6-0.6,0.6
				H21z"/>
		</g>
	</g>
</g>
<g>
	<g>
		<g>
			<path class="st2" d="M7.5,26.6c-0.3,0-0.6-0.3-0.6-0.6c0-0.3,0.3-0.6,0.6-0.6h10.7c0.3,0,0.6,0.3,0.6,0.6c0,0.3-0.3,0.6-0.6,0.6
				H7.5z"/>
		</g>
	</g>
</g>
<g>
	<g>
		<g>
			<path class="st2" d="M21,29.4c-0.3,0-0.6-0.3-0.6-0.6c0-0.3,0.3-0.6,0.6-0.6h5.4c0.3,0,0.6,0.3,0.6,0.6c0,0.3-0.3,0.6-0.6,0.6H21
				z"/>
		</g>
	</g>
</g>
<g>
	<g>
		<g>
			<path class="st2" d="M7.5,29.4c-0.3,0-0.6-0.3-0.6-0.6c0-0.3,0.3-0.6,0.6-0.6h5.4c0.3,0,0.6,0.3,0.6,0.6c0,0.3-0.3,0.6-0.6,0.6
				H7.5z"/>
		</g>
	</g>
</g>
<path class="st1" d="M7.5,19c-0.3,0-0.6-0.3-0.6-0.6V7.7c0-0.3,0.3-0.6,0.6-0.6h10.7c0.3,0,0.6,0.3,0.6,0.6v10.7
	c0,0.3-0.3,0.6-0.6,0.6H7.5z M8.9,17.8h7.9l-3.9-3.9L8.9,17.8z M8.1,17l3.9-3.9L8.1,9.2V17z M13.6,13.1l3.9,3.9V9.1L13.6,13.1z
	 M12.8,12.3l3.9-3.9H8.9L12.8,12.3z"/>
<rect x="7.5" y="33.6" class="st3" width="24.8" height="7.8"/>
</svg>
