<?xml version="1.0" encoding="utf-8"?>
<!-- Generator: Adobe Illustrator 21.0.0, SVG Export Plug-In . SVG Version: 6.00 Build 0)  -->
<svg version="1.1" id="Слой_1" xmlns="http://www.w3.org/2000/svg" xmlns:xlink="http://www.w3.org/1999/xlink" x="0px" y="0px"
	 viewBox="0 0 45.5 43.5" style="enable-background:new 0 0 45.5 43.5;" xml:space="preserve">
<style type="text/css">
	.st0{fill:#1EAAE0;}
	.st1{fill:#C8C8D4;}
</style>
<g>
	<path class="st0" d="M4.5,9.3c-0.3,0-0.6-0.1-0.9-0.4L1.1,6.4C0.6,6,0.6,5.2,1.1,4.7C1.3,4.5,1.6,4.3,2,4.3s0.6,0.1,0.9,0.4
		l1.6,1.6l5.4-5.4c0.2-0.2,0.5-0.4,0.9-0.4s0.6,0.1,0.9,0.4S12,1.4,12,1.7s-0.1,0.6-0.4,0.9L5.3,8.9C5.1,9.2,4.8,9.3,4.5,9.3z"/>
	<g>
		<path class="st0" d="M4.5,26c-0.3,0-0.6-0.1-0.9-0.4l-2.5-2.5c-0.5-0.5-0.5-1.3,0-1.7c0.2-0.2,0.5-0.4,0.9-0.4s0.6,0.1,0.9,0.4
			l1.6,1.6l5.4-5.4c0.2-0.2,0.5-0.4,0.9-0.4s0.6,0.1,0.9,0.4s0.4,0.5,0.4,0.9s-0.1,0.6-0.4,0.9l-6.3,6.3C5.1,25.9,4.8,26,4.5,26z"/>
	</g>
	<path class="st1" d="M17.5,23.7c-0.7,0-1.2-0.6-1.2-1.2s0.6-1.2,1.2-1.2H43c0.7,0,1.2,0.6,1.2,1.2s-0.6,1.2-1.2,1.2H17.5z"/>
	<path class="st1" d="M17.5,6.1c-0.7,0-1.2-0.6-1.2-1.2s0.6-1.2,1.2-1.2H43c0.7,0,1.2,0.6,1.2,1.2S43.7,6.1,43,6.1H17.5z"/>
	<g>
		<path class="st0" d="M4.5,42.7c-0.3,0-0.6-0.1-0.9-0.4l-2.5-2.5c-0.5-0.5-0.5-1.3,0-1.7c0.2-0.2,0.5-0.4,0.9-0.4
			c0.3,0,0.6,0.1,0.9,0.4l1.6,1.6l5.4-5.4c0.2-0.2,0.5-0.4,0.9-0.4s0.6,0.1,0.9,0.4s0.4,0.5,0.4,0.9c0,0.3-0.1,0.6-0.4,0.9l-6.3,6.3
			C5.1,42.6,4.8,42.7,4.5,42.7z"/>
	</g>
	<path class="st1" d="M17.5,40.4c-0.7,0-1.2-0.6-1.2-1.2s0.6-1.2,1.2-1.2H43c0.7,0,1.2,0.6,1.2,1.2s-0.6,1.2-1.2,1.2H17.5z"/>
</g>
</svg>
