<?xml version="1.0" encoding="utf-8"?>
<!-- Generator: Adobe Illustrator 21.0.0, SVG Export Plug-In . SVG Version: 6.00 Build 0)  -->
<svg version="1.1" id="Слой_1" xmlns="http://www.w3.org/2000/svg" xmlns:xlink="http://www.w3.org/1999/xlink" x="0px" y="0px"
	 viewBox="0 0 1864 304.9" style="enable-background:new 0 0 1864 304.9;" xml:space="preserve">
<style type="text/css">
	.st0{fill-rule:evenodd;clip-rule:evenodd;fill:#FFFFFF;}
	.st1{fill:#FFFFFF;}
</style>
<g>
	<polygon class="st0" points="36.2,16.4 173.8,16.4 59.3,263.7 186.4,263.7 172.3,290.4 17,290.4 132.3,42.9 23.3,42.9 36.2,16.4 	
		"/>
	<path class="st0" d="M1608.5,44.9c2.9,2.6,5.7,5.4,8.5,8.3l-22.3,17.7c-8.8-8.9-18.6-16.1-29.7-21.6c-18.1-9.1-37.7-12.9-58.9-11.6
		c-21.1,1.3-40.3,7.7-57.5,19c-16.9,11.2-30,26.1-39.3,44.9c-4.1,8.4-7.2,16.9-9.2,25.6l-0.1,0.4c-4.5,20.5-3.6,40.5,2.7,60.1
		c6.3,19.6,17.5,36.8,33.7,51.6c24,22,51.8,32.3,83.6,30.9c31.5-1.4,58.1-13.8,79.5-36.9l25,12.5c-9,10.8-19.3,20.1-31.2,28
		l-0.9,0.6c-6.9,4.6-14.1,8.6-21.5,11.9c-17.9,8.1-36.4,12.3-55.5,12.4h-2.4c-9.3-0.1-18.8-1.1-28.4-3
		c-38.6-7.8-68.8-28.2-90.6-61.1c-13.9-21.1-22-43.9-24.2-68.5c-0.4-4.4-0.6-8.9-0.6-13.3c0-22,4.9-42.8,14.7-62.5
		c8.3-16.6,19.2-30.9,32.9-42.9c25.9-24,56.3-36.9,91-38.5c38.1-1.7,71.8,10.2,101,36L1608.5,44.9L1608.5,44.9z"/>
	<path class="st0" d="M894,13.3c3.8,1,7.5,2.3,11.3,3.6l-12,25.8c-11.8-4-23.9-6-36.2-6.1c-20.2,0-39.5,5.3-57.9,15.9
		c-18.3,10.6-32.6,24.9-42.9,42.7c-10.1,17.6-15.1,36.8-15.1,57.8c0,9.3,1.1,18.4,3.2,27.1l0.1,0.4c5.1,20.3,14.9,37.8,29.3,52.6
		c14.4,14.7,32.1,25.1,53.2,31.2c31.3,9,60.8,5.8,88.6-9.7c27.7-15.4,46-38.5,54.7-69h-70.2v0h-0.2l12.2-26.4h86.5v0.1l3.3-0.8
		c-1.4,23.9-7.6,46.2-19.4,66.6l-0.6,0.9c-4.1,7.2-8.7,14-13.9,20.2c-18.9,23.3-43.2,39-73,47c-38,10.3-74.2,5.5-108.4-14.2
		c-21.9-12.6-39.3-29.5-52.2-50.5c-2.4-3.8-4.5-7.7-6.5-11.6c-9.8-19.6-14.7-40.4-14.8-62.5c0-18.6,3.4-36.3,10.2-53.1
		c12.5-33.1,33.9-58.2,64.2-75.2c33.3-18.6,68.8-22.9,106.4-13L894,13.3L894,13.3z"/>
	<path class="st0" d="M221.8,186.8c2.6,8.4,6.1,16.5,10.7,24.3c10.4,17.7,25.1,32.1,44.1,43.1c28.2,16.3,57.6,20.3,88.3,11.9
		c6.2-1.7,12.1-3.7,17.6-6.2c3.2-1.5,6.3-3.1,9.4-4.8c18.1-10.3,32.2-24.4,42.3-42.3c10.1-17.9,15.2-37.8,15.2-59.6
		c0-21.7-5.1-41.4-15.2-59c-1.3-2.2-2.6-4.3-3.9-6.3c-9.9-14.1-22.9-25.8-38.9-35.1c-18.8-10.9-38.4-16.3-58.7-16.3
		c-20.1,0-39.2,5.2-57.4,15.7c-18,10.5-32.1,24.7-42.3,42.5c-10.2,17.9-15.3,37.8-15.3,59.8C217.7,166,219.1,176.7,221.8,186.8
		L221.8,186.8z M257.5,30.3C269.1,23,282,17.5,296,13.6c31.2-8.5,61.4-6.7,90.6,5.5c18.2,6.9,34.6,17.6,49.2,32
		c21.5,21.4,34.8,46.5,39.7,75.5c3.8,19.3,3.6,38.1-0.6,56.5c-5.3,27.4-18.3,51.5-39.1,72.2c-15.8,15.8-33.5,27.2-53.2,34
		c-3.9,1.4-7.8,2.6-11.9,3.7c-31.2,8.4-61.1,6.7-89.7-5c-18.4-6.9-35.1-17.8-49.9-32.6C210.4,235,197.4,211.1,192,184
		c-2.1-9.6-3.2-19.5-3.2-29.7c0-16,2.5-31.3,7.6-46c3-9.3,7-18.2,11.9-26.9C220.4,59.9,236.8,43,257.5,30.3L257.5,30.3z"/>
	<polygon class="st0" points="1681.7,16.4 1683,16.4 1683,131.4 1822.3,131.4 1822.3,16.4 1822.3,16.4 1823.5,16.4 1849.8,16.4 
		1849.8,290.4 1822.3,290.4 1822.3,290.4 1822.3,158.2 1683,158.2 1683,290.4 1655.5,290.4 1655.4,290.4 1655.4,16.4 1681.7,16.4 	
		"/>
	<polygon class="st0" points="1190.7,16.4 1346.3,16.4 1333.7,43.5 1218.1,43.5 1218.1,129.1 1293.8,129.1 1281.3,156 1218.1,156 
		1218.1,263.4 1346.6,263.4 1346.6,290.4 1190.7,290.4 1190.7,16.4 	"/>
	<polygon class="st0" points="1003.4,16.4 1159.2,16.4 1159.2,43.1 1098.1,43.1 1098.1,290.4 1070.2,290.4 1070.2,43.1 989.3,43.1 
		1003.4,16.4 	"/>
	<path class="st1" d="M546.6,39.9V289h-27.1V16h68.1c64,0,96,26,96,78.2c0,25.6-8.6,44.8-26,57.7c-15.5,11.6-36.7,17.4-63.5,17.4
		L685.1,289h-32.5L550,149.1c35.6,0,58.4-1.4,68.5-4.2c23.7-6.8,35.6-23.3,35.6-49.3c0-20.7-6.4-35.5-19.4-44.4
		c-10.8-7.6-27.3-11.4-49.5-11.4H546.6L546.6,39.9z"/>
</g>
</svg>
