<?xml version="1.0" encoding="utf-8"?>
<!-- Generator: Adobe Illustrator 21.0.0, SVG Export Plug-In . SVG Version: 6.00 Build 0)  -->
<svg version="1.1" id="Capa_1" xmlns="http://www.w3.org/2000/svg" xmlns:xlink="http://www.w3.org/1999/xlink" x="0px" y="0px"
	 viewBox="0 0 104.3 85.8" style="enable-background:new 0 0 104.3 85.8;" xml:space="preserve">
<style type="text/css">
	.st0{fill:none;stroke:#1DB1EA;stroke-width:5;stroke-miterlimit:10;}
	.st1{fill:#1DB1EA;}
</style>
<g>
	<rect x="20.7" y="31.1" class="st0" width="64" height="48.9"/>
	<rect x="27.6" y="31.1" class="st1" width="3.9" height="48.9"/>
	<rect x="37.1" y="31.1" class="st1" width="3.9" height="48.9"/>
	<g>
		<rect x="46.3" y="31.1" class="st1" width="3.9" height="48.9"/>
		<rect x="55.8" y="31.1" class="st1" width="3.9" height="48.9"/>
	</g>
	<g>
		<rect x="65.1" y="31.1" class="st1" width="3.9" height="48.9"/>
		<rect x="74.6" y="31.1" class="st1" width="3.9" height="48.9"/>
	</g>
	<path class="st0" d="M50.5,6.4L13.7,29.2c-0.8,0.5-0.5,1.8,0.5,1.8H90c1.2,0,1.6-1.5,0.6-2.1L53.2,6.4C52.3,5.9,51.3,5.9,50.5,6.4z
		"/>
	<path class="st1" d="M86.7,82.8H18c-1.3,0-2.4-1.1-2.4-2.4v-0.6c0-1.3,1.1-2.4,2.4-2.4h68.7c1.3,0,2.4,1.1,2.4,2.4v0.6
		C89.1,81.7,88,82.8,86.7,82.8z"/>
</g>
</svg>
