<?xml version="1.0" encoding="utf-8"?>
<!-- Generator: Adobe Illustrator 21.0.0, SVG Export Plug-In . SVG Version: 6.00 Build 0)  -->
<svg version="1.1" id="Слой_1" xmlns="http://www.w3.org/2000/svg" xmlns:xlink="http://www.w3.org/1999/xlink" x="0px" y="0px"
	 viewBox="0 0 39 50.9" style="enable-background:new 0 0 39 50.9;" xml:space="preserve">
<style type="text/css">
	.st0{fill:#C8C8D4;}
	.st1{fill:#1EAAE0;}
</style>
<path class="st0" d="M22.4,44.3H3.1c-0.4,0-0.8-0.3-0.8-0.8V3.4c0-0.4,0.3-0.8,0.8-0.8h21.7v7.1c0,0.5,0.4,0.9,0.9,0.9h6.5v22.7
	c0.6,0.1,1.2,0.3,1.8,0.6V9.4L26,0.9H3.1C1.7,0.9,0.6,2,0.6,3.4v40.2c0,1.4,1.1,2.5,2.5,2.5h20C22.8,45.5,22.6,44.9,22.4,44.3z
	 M26.5,4L31,8.9h-4.5V4z"/>
<g>
	<path class="st1" d="M30.1,33.7c-4.3,0-7.9,3.5-7.9,7.9s3.5,7.9,7.9,7.9s7.9-3.5,7.9-7.9S34.5,33.7,30.1,33.7z M23.7,41.5
		c0-3.6,2.9-6.4,6.4-6.4c1.6,0,3.1,0.6,4.2,1.6l-9.1,9.1C24.3,44.6,23.7,43.1,23.7,41.5z M30.1,48c-1.4,0-2.8-0.5-3.8-1.3l9-9
		c0.8,1.1,1.3,2.4,1.3,3.8C36.6,45.1,33.7,48,30.1,48z"/>
</g>
</svg>
