<?xml version="1.0" encoding="utf-8"?>
<!-- Generator: Adobe Illustrator 21.0.0, SVG Export Plug-In . SVG Version: 6.00 Build 0)  -->
<svg version="1.1" id="Слой_1" xmlns="http://www.w3.org/2000/svg" xmlns:xlink="http://www.w3.org/1999/xlink" x="0px" y="0px"
	 viewBox="0 0 51.6 50.9" style="enable-background:new 0 0 51.6 50.9;" xml:space="preserve">
<style type="text/css">
	.st0{fill:#1EAAE0;}
	.st1{fill:none;}
	.st2{fill:#C8C8D4;}
</style>
<path class="st0" d="M37.1,22.1L37,22c-0.4-0.4-0.4-1.2,0-1.6l5.2-5.2c0.4-0.4,1.2-0.4,1.6,0l0.1,0.1c0.4,0.4,0.4,1.2,0,1.6
	l-5.2,5.2C38.3,22.5,37.5,22.5,37.1,22.1z"/>
<path class="st1" d="M22.6,20l-2.8-2.8c-2.5-2.5-4.4-4.9-6-7.5c-0.5,1.3-1.3,2.4-2.5,3.2c-0.4,0.2-0.9,0.5-1.3,0.7
	c2.6,1.6,5.1,3.5,7.5,6.1l2.9,2.9L22.6,20z"/>
<polygon class="st1" points="5.8,41.3 4.7,42.5 4.7,42.5 5.8,41.3 "/>
<path class="st1" d="M12.3,8.5c0.1-0.4,0.1-0.7,0.1-1.1c0-0.1,0-0.1,0-0.2c0-1.2-0.6-2.4-1.4-3.3c-0.7-0.7-1.6-1.2-2.6-1.4l1.8,3.1
	c0.2,0.2,0.2,0.5,0,0.7l-0.2,0.4C9.3,8.4,7.6,9.4,5.7,9.3H5.3C5,9.3,4.8,9.1,4.6,8.9L2.9,5.9c-0.6,2,0.2,4.2,1.9,5.4
	c1.6,1.1,3.8,1.1,5.5,0.1C11.3,10.7,12,9.7,12.3,8.5z"/>
<path class="st1" d="M28.9,15.2l3.5,3.5c0.7,0.7,1.4,1.1,2.3,1.1c0.4,0.1,0.7,0.1,1,0.1c0.9,0,1.6,0.1,2.5,1.1
	c0.3,0.3,0.5,0.8,0.5,1.2c0.1,0.5-0.1,0.9-0.4,1.1l2.9,2.9c0.3,0.3,0.8,0.3,1.1,0l5.8-5.8c0.2-0.2,0.2-0.3,0.2-0.6s-0.1-0.4-0.2-0.6
	l-2.9-2.9c-0.2,0.3-0.7,0.5-1.1,0.5c-0.4,0-0.9-0.2-1.2-0.5c-1-1-1.1-1.6-1.1-2.5c0-0.2,0-0.6-0.1-1c-0.1-0.8-0.5-1.6-1.1-2.3
	l-2.9-2.9c-1.7-1.7-2.4-2.4-4.3-3.2c-3.4-1.6-6.9-1.6-11.5-0.2C24,4.5,26,5.4,28.6,7.9C30.6,9.9,30.7,13,28.9,15.2z"/>
<path class="st1" d="M46.3,39.2c-0.8-0.6-1.8-0.9-2.8-0.9s-1.9,0.2-2.7,0.8c-0.5,0.3-1,0.8-1.3,1.3c-0.6,0.8-0.9,1.8-0.9,2.8
	c0,0.1,0,0.1,0,0.2c0.1,1.2,0.6,2.3,1.4,3.2c0.7,0.7,1.6,1.2,2.6,1.4l-1.8-3.1c-0.2-0.2-0.2-0.5,0-0.7l0.2-0.4
	c0.8-1.6,2.5-2.7,4.4-2.5h0.4c0.2,0,0.5,0.2,0.7,0.4l1.7,2.9C48.7,42.6,48,40.4,46.3,39.2z"/>
<path class="st1" d="M28,23.8l3.4-3.8l-3.4-3.4L6.9,40.1l0,0l-1.1,1.2l0,0l-1.1,1.2l0,0l-1.1,1.2l0,0l-0.5,0.5
	c-0.4,0.4-0.6,0.8-0.6,1.3c0,0.4,0.2,0.8,0.5,1.1l1.1,1.1c0.7,0.7,1.7,0.6,2.4-0.1l17.6-19.7c0-0.1,0.1-0.2,0.2-0.3l3.3-3.7
	C27.8,23.9,27.9,23.8,28,23.8z"/>
<path class="st1" d="M22.6,20l-2.8-2.8c-2.5-2.5-4.4-4.9-6-7.5c-0.5,1.3-1.3,2.4-2.5,3.2c-0.4,0.2-0.9,0.5-1.3,0.7
	c2.6,1.6,5.1,3.5,7.5,6.1l2.9,2.9L22.6,20z"/>
<path class="st1" d="M35.1,37.8L35.1,37.8c-0.1-0.2-0.3-0.4-0.4-0.5C34.8,37.4,34.9,37.6,35.1,37.8z"/>
<path class="st1" d="M28.9,15.2l3.5,3.5c0.7,0.7,1.4,1.1,2.3,1.1c0.4,0.1,0.7,0.1,1,0.1c0.9,0,1.6,0.1,2.5,1.1
	c0.3,0.3,0.5,0.8,0.5,1.2c0.1,0.5-0.1,0.9-0.4,1.1l2.9,2.9c0.3,0.3,0.8,0.3,1.1,0l5.8-5.8c0.2-0.2,0.2-0.3,0.2-0.6s-0.1-0.4-0.2-0.6
	l-2.9-2.9c-0.2,0.3-0.7,0.5-1.1,0.5c-0.4,0-0.9-0.2-1.2-0.5c-1-1-1.1-1.6-1.1-2.5c0-0.2,0-0.6-0.1-1c-0.1-0.8-0.5-1.6-1.1-2.3
	l-2.9-2.9c-1.7-1.7-2.4-2.4-4.3-3.2c-3.4-1.6-6.9-1.6-11.5-0.2C24,4.5,26,5.4,28.6,7.9C30.6,9.9,30.7,13,28.9,15.2z"/>
<path class="st1" d="M12.3,8.5c0.1-0.4,0.1-0.7,0.1-1.1c0-0.1,0-0.1,0-0.2c0-1.2-0.6-2.4-1.4-3.3c-0.7-0.7-1.6-1.2-2.6-1.4l1.8,3.1
	c0.2,0.2,0.2,0.5,0,0.7l-0.2,0.4C9.3,8.4,7.6,9.4,5.7,9.3H5.3C5,9.3,4.8,9.1,4.6,8.9L2.9,5.9c-0.6,2,0.2,4.2,1.9,5.4
	c1.6,1.1,3.8,1.1,5.5,0.1C11.3,10.7,12,9.7,12.3,8.5z"/>
<path class="st1" d="M46.3,39.2c-0.8-0.6-1.8-0.9-2.8-0.9s-1.9,0.2-2.7,0.8c-0.5,0.3-1,0.8-1.3,1.3c-0.6,0.8-0.9,1.8-0.9,2.8
	c0,0.1,0,0.1,0,0.2c0.1,1.2,0.6,2.3,1.4,3.2c0.7,0.7,1.6,1.2,2.6,1.4l-1.8-3.1c-0.2-0.2-0.2-0.5,0-0.7l0.2-0.4
	c0.8-1.6,2.5-2.7,4.4-2.5h0.4c0.2,0,0.5,0.2,0.7,0.4l1.7,2.9C48.7,42.6,48,40.4,46.3,39.2z"/>
<path class="st2" d="M47.4,37.7L47.4,37.7c-1-0.7-2.2-1.1-3.5-1.2c-4.5-2.9-7.3-5.1-9-6.8l-5.1-5.1l2.9-3.3c0.6,0.3,1.2,0.5,1.8,0.6
	c0.5,0.1,0.9,0.1,1.2,0.1c0.5,0,0.7,0,1.1,0.3c-0.2,0.3-0.4,0.7-0.4,1.1c0,0.5,0.2,1.1,0.6,1.4l2.8,2.8c0.4,0.5,1.1,0.8,1.9,0.8
	c0.8,0,1.5-0.3,1.9-0.9l5.8-5.8c0.5-0.4,0.8-1.1,0.8-1.9c0-0.7-0.3-1.4-0.8-1.9l-2.9-2.9c-0.4-0.4-0.8-0.6-1.3-0.6
	c-0.3,0-0.7,0.1-1.1,0.4c-0.4-0.4-0.4-0.5-0.4-1.1c0-0.3,0-0.8-0.2-1.3c-0.2-1.2-0.8-2.4-1.7-3.3l-2.9-2.9c-1.7-1.7-2.6-2.6-4.8-3.6
	c-4.8-2.2-9.7-1.8-16.8,1.4c-0.5,0.2-0.8,0.6-0.6,1.2c0.1,0.5,0.5,0.9,1.1,0.9h1.1c3.6,0,5.4,0,8.6,3.2c1.3,1.3,1.4,3.3,0.2,4.8
	c-0.2,0-0.3,0.1-0.5,0.3l-3.5,3.9l-2.6-2.6c-2.9-2.9-5.1-5.8-6.7-9c-0.1-1.7-0.8-3.2-2-4.4C11,1.1,9,0.3,6.8,0.5
	C6.6,0.6,6.2,0.8,6.1,1c-0.2,0.3-0.2,0.8,0,1.1l2.2,4C7.9,7,7,7.5,6,7.5L3.7,3.7C3.6,3.4,3.2,3.2,2.9,3.1C2.5,3.1,2.2,3.2,2,3.6
	c-2.1,3.1-1.3,7.1,1.8,9.3c1,0.7,2.2,1.2,3.4,1.2c3.2,1.6,6.1,3.8,9,6.8l2.8,2.8L1.7,42.8c-0.7,0.7-1.1,1.6-1.1,2.6
	c0,1,0.4,1.9,1.1,2.6l1.2,1.2c0.7,0.6,1.6,1,2.5,1c0.9,0,1.9-0.4,2.6-1.1l17.2-19.3l4.9,4.9c1.6,1.6,3.6,4.3,6.8,9.1
	c0.1,1.6,0.8,3.1,2,4.3c1.3,1.3,3,2,4.8,2h0.7c0.3,0,0.6-0.2,0.9-0.5c0.2-0.3,0.2-0.8,0-1.1l-2.3-3.9c0.5-0.9,1.4-1.4,2.4-1.4
	l2.2,3.8c0.1,0.4,0.5,0.6,0.9,0.6c0,0,0,0,0,0c0.4-0.1,0.7-0.2,0.9-0.5C51.2,43.9,50.4,39.8,47.4,37.7z M39,22.2
	c0-0.5-0.2-1.1-0.6-1.4c-1.1-1.1-1.8-1.1-2.7-1.1c-0.2,0-0.5,0-1-0.1c-0.8-0.1-1.5-0.4-2.1-1.1l-3.4-3.4c1.7-2.3,1.5-5.4-0.5-7.4
	l0,0c-2-2-3.8-3-5.8-3.5c4-1.1,7.2-1,10.3,0.5c1.9,0.8,2.6,1.4,4.3,3.1l2.9,2.9c0.6,0.6,1,1.4,1.1,2.2c0.1,0.4,0.1,0.7,0.1,0.9
	c0,0.9,0.1,1.7,1.1,2.7c0.3,0.3,0.9,0.6,1.4,0.6c0.5,0,0.9-0.1,1.2-0.4l2.7,2.7c0.1,0.1,0.2,0.2,0.2,0.4s0,0.3-0.2,0.4l-5.8,5.8
	c-0.2,0.2-0.6,0.2-0.8,0l-2.7-2.7C39,23.1,39.1,22.7,39,22.2z M3.3,44.4l0.3-0.3l0,0l2.1-2.4l0,0l22.1-24.8L31,20l-3.2,3.6
	c-0.1,0.1-0.2,0.1-0.3,0.2l-3.3,3.7c-0.1,0.1-0.2,0.2-0.2,0.4L6.4,47.5c-0.6,0.6-1.5,0.6-2,0.1l-1.1-1.1c-0.3-0.3-0.4-0.6-0.4-1
	C2.8,45.1,3,44.8,3.3,44.4z M40.7,43.7L40.6,44c-0.2,0.3-0.2,0.7,0,1l1.5,2.6c-0.7-0.2-1.4-0.6-1.9-1.2c-0.8-0.9-1.3-2-1.3-3
	c0-0.1,0-0.1,0-0.2c0-1,0.3-1.9,0.9-2.7c0.3-0.5,0.8-0.9,1.2-1.2c0.7-0.5,1.6-0.8,2.6-0.8c0.9,0,1.9,0.3,2.6,0.9
	c1.4,1,2.2,2.8,1.9,4.5l-1.4-2.4c-0.2-0.3-0.5-0.5-0.9-0.5l-0.4,0C43.5,40.8,41.6,41.8,40.7,43.7z M10.3,6.8l0.1-0.4
	c0.2-0.3,0.2-0.7,0-1L9,2.9c0.7,0.2,1.4,0.6,1.9,1.2c0.8,0.9,1.3,2,1.3,3.1c0,0.1,0,0.2,0,0.2c0,0.3,0,0.7-0.1,1
	c-0.3,1.1-1,2.1-2,2.8c-1.6,1-3.7,1-5.2-0.1c-1.4-1-2.2-2.8-1.9-4.5L4.4,9C4.6,9.3,5,9.5,5.3,9.5h0.4C7.6,9.6,9.5,8.6,10.3,6.8z
	 M17.7,19.3C15.3,17,13,15,10.5,13.5c0.3-0.1,0.6-0.3,0.9-0.5c1.1-0.7,1.9-1.7,2.4-2.8c1.5,2.4,3.4,4.8,5.8,7.2l2.6,2.6l-1.9,2.1
	L17.7,19.3z M37.7,40.2L37.7,40.2l-0.2-0.1l-0.1,0.2c0,0.1-0.1,0.2-0.1,0.2c-0.3-0.5-0.6-0.9-1-1.4l0,0l-0.7-0.9
	c-0.1-0.1-0.2-0.3-0.4-0.6l-0.1-0.1c-0.1-0.1-0.1-0.1-0.2-0.2l-0.1-0.2c-0.5-0.7-1.2-1.5-1.5-1.9l-0.3-0.3l0,0
	c-0.5-0.6-1-1.2-1.5-1.7l-5-5l1.9-2.1l5.1,5.1c1.4,1.5,3.8,3.4,7.3,5.7c-0.4,0.2-0.7,0.4-1.1,0.6c-1,0.6-1.8,1.5-2.3,2.6L37.7,40.2
	L37.7,40.2L37.7,40.2z"/>
</svg>
