<?xml version="1.0" encoding="utf-8"?>
<!-- Generator: Adobe Illustrator 21.0.0, SVG Export Plug-In . SVG Version: 6.00 Build 0)  -->
<svg version="1.1" id="Слой_1" xmlns="http://www.w3.org/2000/svg" xmlns:xlink="http://www.w3.org/1999/xlink" x="0px" y="0px"
	 viewBox="0 0 44.4 40.6" style="enable-background:new 0 0 44.4 40.6;" xml:space="preserve">
<style type="text/css">
	.st0{fill:#1EAAE0;}
</style>
<g>
	<g>
		<path class="st0" d="M35.1,8.8c5.7,6.3,5.8,15.7,0.6,22.1l-0.2-5.1c0-0.7-0.6-1.2-1.2-1.1c-0.6,0-1.1,0.5-1.1,1.2c0,0,0,0,0,0
			l0.3,7.8c0,0.6,0.5,1.1,1.2,1.1h0.1c0,0,0,0,0,0h0l0,0l7.7-0.3c0.7,0,1.2-0.6,1.1-1.2c0-0.7-0.6-1.2-1.2-1.1l-4.8,0.2
			c2.6-3.2,4.1-7,4.3-11.2c0.3-5.1-1.5-10.1-5-13.9c-4.8-5.3-12-7.5-18.9-5.8c-0.5,0.1-0.9,0.6-0.9,1.1c0,0.1,0,0.2,0,0.3
			c0.2,0.6,0.8,1,1.4,0.9C24.6,2.2,31,4.1,35.1,8.8z"/>
		<path class="st0" d="M26.6,39.2c0.6-0.2,1-0.8,0.9-1.4c-0.2-0.6-0.8-1-1.4-0.9c-6.1,1.5-12.4-0.5-16.6-5.1
			c-2.9-3.2-4.4-7.3-4.4-11.4c0-3.9,1.3-7.7,3.9-10.8l0.5,5.1c0.1,0.6,0.6,1.1,1.3,1.1c0.7-0.1,1.1-0.6,1.1-1.3l-0.7-7.7
			C11,6.2,10.4,5.7,9.8,5.7L2.1,6.4C1.4,6.5,1,7,1,7.6c0,0,0,0.1,0,0.1c0.1,0.6,0.6,1.1,1.3,1.1L7,8.3c-2.6,3.2-4,7-4.3,11.2
			c0,0.3,0,0.7,0,1c0,4.8,1.8,9.4,5,12.9C12.4,38.7,19.7,40.9,26.6,39.2z"/>
	</g>
</g>
</svg>
