<?xml version="1.0" encoding="utf-8"?>
<!-- Generator: Adobe Illustrator 21.0.0, SVG Export Plug-In . SVG Version: 6.00 Build 0)  -->
<svg version="1.1" id="Capa_1" xmlns="http://www.w3.org/2000/svg" xmlns:xlink="http://www.w3.org/1999/xlink" x="0px" y="0px"
	 viewBox="0 0 50.1 49.6" style="enable-background:new 0 0 50.1 49.6;" xml:space="preserve">
<style type="text/css">
	.st0{fill:#3AB5E4;}
</style>
<g>
	<path class="st0" d="M48.3,19.1c-0.2-0.5-0.6-0.8-1.1-0.9l-14.7-2.1L25.8,2.7C25.6,2.3,25.2,2,24.7,2l0,0c-0.5,0-1,0.3-1.2,0.7
		l-6.5,13.4L2.2,18.3c-0.5,0.1-0.9,0.4-1.1,0.9s0,1,0.3,1.3l10.7,10.4L9.7,45.6c-0.1,0.5,0.1,1,0.5,1.3c0.2,0.2,0.5,0.3,0.8,0.3
		c0.2,0,0.4,0,0.6-0.2l13.2-7L38,46.9c0.2,0.1,0.4,0.1,0.6,0.1l0,0c0.7,0,1.3-0.6,1.3-1.3c0-0.1,0-0.2,0-0.3l-2.6-14.6l10.6-10.4
		C48.3,20.1,48.4,19.5,48.3,19.1z M35,29.4c-0.3,0.3-0.4,0.7-0.4,1.2l2.2,12.7l-11.5-6c-0.4-0.2-0.8-0.2-1.2,0l-11.4,6.1l2.1-12.8
		c0.1-0.4-0.1-0.9-0.4-1.2l-9.3-9L18,18.6c0.4-0.1,0.8-0.3,1-0.7l5.7-11.6l5.8,11.6c0.2,0.4,0.6,0.6,1,0.7l12.8,1.8L35,29.4z"/>
</g>
</svg>
