<?xml version="1.0" encoding="utf-8"?>
<!-- Generator: Adobe Illustrator 21.0.0, SVG Export Plug-In . SVG Version: 6.00 Build 0)  -->
<svg version="1.1" id="Слой_1" xmlns="http://www.w3.org/2000/svg" xmlns:xlink="http://www.w3.org/1999/xlink" x="0px" y="0px"
	 viewBox="0 0 38.8 38.8" style="enable-background:new 0 0 38.8 38.8;" xml:space="preserve">
<style type="text/css">
	.st0{fill:#1EAAE0;}
</style>
<path class="st0" d="M35.8,15.9l-2.7-0.5l0-0.1c-0.3-0.9-0.6-1.7-1-2.5l0-0.1l1.6-2.2c0.6-0.8,0.5-2-0.2-2.7l-2.3-2.3
	C30.7,5.3,30.1,5,29.6,5c-0.4,0-0.9,0.1-1.2,0.4L26.2,7l-0.1,0c-0.8-0.4-1.7-0.8-2.6-1.1l-0.1,0L23,3.2c-0.2-1-1-1.8-2.1-1.8h-3.2
	c-1,0-1.9,0.7-2.1,1.8l-0.5,2.7l-0.1,0c-0.8,0.3-1.7,0.6-2.5,1l-0.1,0l-2.2-1.6C10,5.2,9.5,5.1,9.1,5.1C8.5,5.1,8,5.3,7.6,5.7L5.3,8
	c-0.7,0.7-0.8,1.9-0.2,2.7l1.6,2.2l0,0.1c-0.4,0.8-0.7,1.6-1,2.5l0,0.1L3,16c-1,0.2-1.8,1-1.8,2.1v3.2c0,1,0.7,1.9,1.8,2.1l2.7,0.5
	l0,0.1c0.3,0.8,0.6,1.7,1,2.5l0,0.1l-1.6,2.2c-0.6,0.8-0.5,2,0.2,2.7l2.3,2.3c0.4,0.4,0.9,0.6,1.5,0.6c0.4,0,0.9-0.1,1.2-0.4
	l2.2-1.6l0.1,0c0.7,0.4,1.5,0.7,2.4,1l0.1,0l0.4,2.7c0.2,1,1,1.8,2.1,1.8H21c1,0,1.9-0.7,2.1-1.8l0.5-2.7l0.1,0
	c0.9-0.3,1.7-0.6,2.5-1l0.1,0l2.2,1.6c0.4,0.3,0.8,0.4,1.2,0.4c0.6,0,1.1-0.2,1.5-0.6l2.3-2.3c0.7-0.7,0.8-1.9,0.2-2.7L32,26.4
	l0-0.1c0.4-0.8,0.8-1.7,1-2.5l0-0.1l2.7-0.4c1-0.2,1.8-1,1.8-2.1V18C37.5,17,36.8,16.1,35.8,15.9z M31.6,22.8
	c-0.3,1.2-0.8,2.2-1.3,3.2c-0.2,0.3-0.2,0.7,0,0.9l1.9,2.7c0.1,0.1,0.1,0.3,0,0.5l-2.3,2.3c-0.1,0.1-0.3,0.1-0.5,0l-2.7-1.9
	c-0.3-0.2-0.7-0.2-0.9,0c-1,0.6-2.1,1.1-3.2,1.3c-0.3,0.1-0.6,0.4-0.6,0.7l-0.5,3.2c0,0.2-0.2,0.3-0.4,0.3h-3.2
	c-0.2,0-0.3-0.1-0.4-0.3l-0.5-3.2c-0.1-0.3-0.3-0.6-0.6-0.7c-1.1-0.3-2.2-0.7-3.2-1.3c-0.1-0.1-0.3-0.1-0.4-0.1
	c-0.2,0-0.4,0.1-0.5,0.2l-2.7,1.9c-0.2,0.1-0.3,0.1-0.5,0l-2.3-2.3c-0.1-0.1-0.1-0.3,0-0.5l1.9-2.6c0.2-0.3,0.2-0.7,0-1
	c-0.6-1-1.1-2.1-1.4-3.2c-0.1-0.3-0.4-0.6-0.7-0.6l-3.2-0.6c-0.2,0-0.3-0.2-0.3-0.4v-3.2c0-0.2,0.1-0.3,0.3-0.4l3.2-0.5
	c0.3-0.1,0.6-0.3,0.7-0.6c0.3-1.2,0.7-2.3,1.3-3.3c0.2-0.3,0.2-0.7,0-0.9L6.5,9.7c-0.1-0.1-0.1-0.3,0-0.5l2.3-2.3
	c0.1-0.1,0.3-0.1,0.5,0L12,8.8c0.3,0.2,0.7,0.2,1,0c1-0.6,2.1-1.1,3.2-1.4c0.3-0.1,0.6-0.4,0.6-0.7l0.6-3.2c0-0.2,0.2-0.3,0.4-0.3
	h3.2c0.2,0,0.3,0.1,0.4,0.3l0.5,3.2c0.1,0.3,0.3,0.6,0.6,0.7c1.2,0.3,2.3,0.8,3.3,1.4c0.3,0.2,0.7,0.2,0.9,0l2.6-1.9
	c0.2-0.1,0.3-0.1,0.5,0l2.3,2.3c0.1,0.1,0.1,0.3,0,0.5l-1.9,2.7c-0.2,0.3-0.2,0.6,0,0.9c0.6,1,1.1,2.1,1.3,3.2
	c0.1,0.3,0.4,0.6,0.7,0.6l3.2,0.5c0.2,0,0.3,0.2,0.3,0.4v3.2l0,0.2h0l0,0.1c-0.1,0.1-0.1,0.1-0.2,0.1l-3.2,0.5
	C31.9,22.2,31.6,22.4,31.6,22.8z"/>
<path class="st0" d="M19.4,11.9c-4.3,0-7.7,3.5-7.7,7.7s3.5,7.7,7.7,7.7c4.3,0,7.7-3.5,7.7-7.7S23.6,11.9,19.4,11.9z M19.4,25.6
	c-3.3,0-6-2.7-6-6s2.7-6,6-6s6,2.7,6,6S22.7,25.6,19.4,25.6z"/>
</svg>
