<?xml version="1.0" encoding="utf-8"?>
<!-- Generator: Adobe Illustrator 21.0.0, SVG Export Plug-In . SVG Version: 6.00 Build 0)  -->
<svg version="1.1" id="Слой_1" xmlns="http://www.w3.org/2000/svg" xmlns:xlink="http://www.w3.org/1999/xlink" x="0px" y="0px"
	 viewBox="0 0 57 61.8" style="enable-background:new 0 0 57 61.8;" xml:space="preserve">
<style type="text/css">
	.st0{fill:#C8C8D4;}
	.st1{fill:#1EAAE0;}
</style>
<g>
	<path class="st0" d="M23.7,46.2c-4.4,0-7.9-3.5-7.9-7.9c0-4.4,3.5-7.9,7.9-7.9c4.4,0,7.9,3.5,7.9,7.9
		C31.6,42.6,28.1,46.2,23.7,46.2z M23.7,32.5c-3.2,0-5.8,2.6-5.8,5.8c0,3.2,2.6,5.8,5.8,5.8s5.8-2.6,5.8-5.8
		C29.6,35.1,27,32.5,23.7,32.5z"/>
	<path class="st0" d="M20.6,61.3c-0.6,0-1-0.5-1-1v-3.1l-0.4-0.1c-1.9-0.5-3.8-1.2-5.5-2.3l-0.3-0.2l-2.2,2.2
		c-0.2,0.2-0.5,0.3-0.7,0.3c-0.3,0-0.5-0.1-0.7-0.3l-4.4-4.4c-0.4-0.4-0.4-1.1,0-1.5l2.2-2.2l-0.2-0.3c-1-1.7-1.8-3.6-2.3-5.5
		l-0.1-0.4H1.8c-0.6,0-1-0.5-1-1v-6.3c0-0.6,0.5-1,1-1h3.1l0.1-0.4c0.5-1.9,1.2-3.8,2.3-5.5l0.2-0.3l-2.2-2.2
		C5,25.5,4.9,25.2,4.9,25s0.1-0.5,0.3-0.7l4.4-4.4c0.2-0.2,0.5-0.3,0.7-0.3s0.5,0.1,0.7,0.3l2.2,2.2l0.3-0.2c1.7-1,3.6-1.8,5.5-2.3
		l0.4-0.1v-3.1c0-0.6,0.5-1,1-1h4.5V6.4C25.1,2.9,28,0,31.6,0h19C54.1,0,57,2.9,57,6.4v16c0,3.5-2.9,6.4-6.4,6.4h-5.4l-3.4,2.4
		l0.1,0.4c0.3,0.7,0.5,1.4,0.6,2.1l0.1,0.4h3.1c0.6,0,1,0.5,1,1v6.3c0,0.6-0.5,1-1,1h-3.1l-0.1,0.4c-0.5,1.9-1.2,3.8-2.3,5.5
		l-0.2,0.3l2.2,2.2c0.2,0.2,0.3,0.5,0.3,0.7c0,0.3-0.1,0.5-0.3,0.7l-4.4,4.4c-0.2,0.2-0.5,0.3-0.7,0.3s-0.5-0.1-0.7-0.3l-2.2-2.2
		l-0.3,0.2c-1.7,1-3.6,1.8-5.5,2.3l-0.4,0.1v3.1c0,0.6-0.5,1-1,1H20.6z M13.2,52.2c0.2,0,0.4,0.1,0.6,0.2c2.1,1.5,4.4,2.5,7,2.9
		c0.5,0.1,0.9,0.5,0.9,1v2.9h4.2v-2.9c0-0.5,0.4-0.9,0.9-1c2.5-0.4,4.9-1.4,7-2.9c0.2-0.1,0.4-0.2,0.6-0.2c0.3,0,0.5,0.1,0.7,0.3
		l2.1,2.1l3-3L38,49.6c-0.4-0.4-0.4-0.9-0.1-1.3c1.5-2.1,2.5-4.5,2.9-7c0.1-0.5,0.5-0.9,1-0.9h2.9v-4.2h-2.9c-0.5,0-0.9-0.4-1-0.9
		c-0.1-0.7-0.3-1.4-0.5-2.1l-0.2-0.7L35.3,36c-0.2,0.1-0.4,0.2-0.6,0.2c-0.2,0-0.3,0-0.5-0.1c-0.3-0.2-0.6-0.5-0.6-0.9v-6.3h-2
		c-3.5,0-6.4-2.9-6.4-6.4v-5.1h-3.5v2.9c0,0.5-0.4,0.9-0.9,1c-2.5,0.4-4.9,1.4-7,2.9c-0.2,0.1-0.4,0.2-0.6,0.2
		c-0.3,0-0.5-0.1-0.7-0.3L10.4,22l-3,3L9.5,27c0.4,0.4,0.4,0.9,0.1,1.3c-1.5,2.1-2.5,4.5-2.9,7c-0.1,0.5-0.5,0.9-1,0.9H2.8v4.2h2.9
		c0.5,0,0.9,0.4,1,0.9c0.4,2.5,1.4,4.9,2.9,7c0.3,0.4,0.2,1-0.1,1.3l-2.1,2.1l3,3l2.1-2.1C12.7,52.3,12.9,52.2,13.2,52.2z M31.6,2.1
		c-2.4,0-4.4,2-4.4,4.4v16c0,2.4,2,4.4,4.4,4.4h3.1c0.6,0,1,0.5,1,1v5.3l8.5-6.1c0.2-0.1,0.4-0.2,0.6-0.2h5.7c2.4,0,4.4-2,4.4-4.4
		v-16c0-2.4-2-4.4-4.4-4.4H31.6z"/>
	<path class="st1" d="M40.9,19.4c-0.3,0-0.5-0.1-0.7-0.3c-0.2-0.2-0.3-0.5-0.3-0.7s0.1-0.5,0.3-0.7l0.5-0.5c1.6-1.6,4.1-4.1,4.1-6.1
		c0-2.1-1.7-3.9-3.9-3.9C38.7,7.1,37,8.9,37,11c0,0.6-0.5,1-1,1s-1-0.5-1-1c0-3.3,2.7-5.9,5.9-5.9s5.9,2.7,5.9,5.9
		c0,2.9-2.7,5.6-4.7,7.6l-0.5,0.5C41.4,19.3,41.1,19.4,40.9,19.4z"/>
	<path class="st1" d="M40.4,24.4c-0.4,0-0.7-0.1-1-0.4s-0.4-0.6-0.4-1c0-0.4,0.1-0.7,0.4-1c0.3-0.3,0.6-0.4,1-0.4s0.7,0.1,1,0.4
		c0.2,0.3,0.4,0.6,0.4,1c0,0.4-0.1,0.7-0.4,1C41.1,24.2,40.8,24.4,40.4,24.4z"/>
</g>
</svg>
