<?xml version="1.0" encoding="utf-8"?>
<!-- Generator: Adobe Illustrator 21.0.0, SVG Export Plug-In . SVG Version: 6.00 Build 0)  -->
<svg version="1.1" id="Слой_1" xmlns="http://www.w3.org/2000/svg" xmlns:xlink="http://www.w3.org/1999/xlink" x="0px" y="0px"
	 viewBox="0 0 51 50.9" style="enable-background:new 0 0 51 50.9;" xml:space="preserve">
<style type="text/css">
	.st0{fill:#1EAAE0;}
	.st1{fill:#C8C8D4;}
</style>
<g>
	<g>
		<g>
			<path class="st0" d="M12.8,8.1c0.3-0.5,0.4-1.1,0.2-1.7c-0.2-0.5-0.7-0.9-1.3-1.1c-0.1,0-0.1-0.1-0.1-0.1
				c-0.1-0.6-0.5-1.1-1.1-1.3C9.9,3.7,9.3,3.8,8.8,4.1c-0.1,0-0.1,0-0.2,0C8.1,3.8,7.5,3.7,6.9,3.9C6.4,4.2,6,4.6,5.9,5.2
				c0,0.1-0.1,0.1-0.1,0.1C5.2,5.5,4.7,5.9,4.5,6.4C4.2,7,4.3,7.6,4.6,8.1c0,0.1,0,0.1,0,0.2C4.3,8.7,4.2,9.4,4.5,9.9
				c0.2,0.5,0.7,0.9,1.3,1.1c0.1,0,0.1,0.1,0.1,0.1c0.1,0.6,0.5,1.1,1.1,1.3c0.5,0.2,1.2,0.2,1.7-0.2c0.1,0,0.1,0,0.2,0
				c0.3,0.2,0.6,0.3,1,0.3c0.2,0,0.5,0,0.7-0.1c0.5-0.2,0.9-0.7,1.1-1.3c0-0.1,0.1-0.1,0.1-0.1c0.6-0.1,1.1-0.5,1.3-1.1
				c0.2-0.5,0.2-1.2-0.2-1.7C12.7,8.2,12.7,8.1,12.8,8.1z M11.4,9.1c0,0.1,0,0.1,0,0.2c0,0-0.1,0.1-0.1,0.1
				c-0.7,0.1-1.3,0.7-1.4,1.4c0,0.1-0.1,0.1-0.1,0.1c0,0-0.1,0-0.2,0c-0.3-0.2-0.6-0.3-1-0.3c-0.3,0-0.7,0.1-1,0.3
				c-0.1,0-0.1,0-0.2,0c0,0-0.1-0.1-0.1-0.1c-0.1-0.7-0.7-1.3-1.4-1.4C6,9.4,5.9,9.3,5.9,9.3c0,0,0-0.1,0-0.2c0.4-0.6,0.4-1.4,0-2
				c0-0.1,0-0.1,0-0.2C6,7,6,6.9,6.1,6.9c0.7-0.1,1.3-0.7,1.4-1.4c0-0.1,0.1-0.1,0.1-0.1c0,0,0.1,0,0.2,0c0.6,0.4,1.4,0.4,2,0
				c0.1,0,0.1,0,0.2,0c0,0,0.1,0.1,0.1,0.1c0.1,0.7,0.7,1.3,1.4,1.4c0.1,0,0.1,0.1,0.1,0.1c0,0,0,0.1,0,0.2C11,7.8,11,8.5,11.4,9.1z
				"/>
			<path class="st0" d="M46.8,42.3c0-0.1,0-0.1,0-0.2c0.3-0.5,0.4-1.1,0.2-1.7c-0.2-0.5-0.7-0.9-1.3-1.1c-0.1,0-0.1-0.1-0.1-0.1
				c-0.1-0.6-0.5-1.1-1.1-1.3c-0.5-0.2-1.2-0.2-1.7,0.2c-0.1,0-0.1,0-0.2,0c-0.5-0.3-1.1-0.4-1.7-0.2c-0.5,0.2-0.9,0.7-1.1,1.3
				c0,0.1-0.1,0.1-0.1,0.1c-0.6,0.1-1.1,0.5-1.3,1.1c-0.2,0.5-0.2,1.2,0.2,1.7c0,0.1,0,0.1,0,0.2c-0.3,0.5-0.4,1.1-0.2,1.7
				c0.2,0.5,0.7,0.9,1.3,1.1c0.1,0,0.1,0.1,0.1,0.1c0.1,0.6,0.5,1.1,1.1,1.3c0.5,0.2,1.2,0.2,1.7-0.2c0.1,0,0.1,0,0.2,0
				c0.3,0.2,0.6,0.3,1,0.3c0.2,0,0.5,0,0.7-0.1c0.5-0.2,0.9-0.7,1.1-1.3c0-0.1,0.1-0.1,0.1-0.1c0.6-0.1,1.1-0.5,1.3-1.1
				C47.2,43.5,47.2,42.8,46.8,42.3z M45.5,43.2c0,0.1,0,0.1,0,0.2c0,0-0.1,0.1-0.1,0.1c-0.7,0.1-1.3,0.7-1.4,1.4
				C44,45,44,45,43.9,45c0,0-0.1,0-0.2,0c-0.3-0.2-0.6-0.3-1-0.3c-0.3,0-0.7,0.1-1,0.3c-0.1,0-0.1,0-0.2,0c0,0-0.1-0.1-0.1-0.1
				c-0.1-0.7-0.7-1.3-1.4-1.4c-0.1,0-0.1-0.1-0.1-0.1c0,0,0-0.1,0-0.2c0.4-0.6,0.4-1.4,0-2c0-0.1,0-0.1,0-0.2c0,0,0.1-0.1,0.1-0.1
				c0.7-0.1,1.3-0.7,1.4-1.4c0-0.1,0.1-0.1,0.1-0.1c0,0,0.1,0,0.2,0c0.6,0.4,1.4,0.4,2,0c0.1,0,0.1,0,0.2,0c0,0,0.1,0.1,0.1,0.1
				c0.1,0.7,0.7,1.3,1.4,1.4c0.1,0,0.1,0.1,0.1,0.1c0,0,0,0.1,0,0.2C45.1,41.9,45.1,42.6,45.5,43.2z"/>
			<path class="st1" d="M42.8,34.7c-0.7,0-1.4,0.1-2.1,0.3l-9.8-9.8l9.8-9.8c1.5,0.4,3,0.4,4.5-0.1c2.2-0.7,4-2.5,4.8-4.8
				c0.5-1.7,0.5-3.4-0.1-5l-0.4-1.2l-5.3,5.3c-0.3,0.3-0.8,0.3-1.1,0l-1.7-1.7c-0.3-0.3-0.3-0.8,0-1.1l5.3-5.3l-1.2-0.4
				c-1.6-0.6-3.4-0.6-5-0.1c-2.2,0.7-4,2.5-4.8,4.8c-0.5,1.5-0.5,3-0.1,4.5l-9.8,9.8l-9.8-9.8c0.2-0.7,0.3-1.4,0.3-2.1
				c0-4.2-3.4-7.5-7.5-7.5C4.5,0.6,1.2,4,1.2,8.2s3.4,7.5,7.5,7.5c0.7,0,1.4-0.1,2.1-0.3l9.8,9.8L10.8,35c-1.5-0.4-3-0.4-4.5,0.1
				c-2.2,0.7-4,2.5-4.8,4.8c-0.5,1.7-0.5,3.4,0.1,5L2.1,46l5.3-5.3c0.3-0.3,0.8-0.3,1.1,0l1.7,1.7c0.3,0.3,0.3,0.8,0,1.1l-5.3,5.3
				l1.2,0.4c0.9,0.3,1.7,0.5,2.6,0.5c0.8,0,1.6-0.1,2.4-0.4c2.2-0.7,4-2.5,4.8-4.8c0.5-1.5,0.5-3,0.1-4.5l9.8-9.8l9.8,9.8
				c-0.2,0.7-0.3,1.4-0.3,2.1c0,4.2,3.4,7.5,7.5,7.5s7.5-3.4,7.5-7.5S46.9,34.7,42.8,34.7z M11.2,13.5l-0.5,0.2
				c-0.7,0.3-1.4,0.4-2.1,0.4c-3.3,0-5.9-2.7-5.9-5.9s2.7-5.9,5.9-5.9c3.3,0,5.9,2.7,5.9,5.9c0,0.7-0.1,1.4-0.4,2.1l-0.2,0.5
				l10.5,10.5l-2.8,2.8L11.2,13.5z M24.6,29.2L14.1,39.7l0.2,0.5c0.5,1.3,0.5,2.6,0.1,4c-0.6,1.8-2,3.2-3.7,3.7
				c-0.9,0.3-1.8,0.4-2.7,0.3l3.4-3.4c0.4-0.4,0.7-1,0.7-1.7c0-0.6-0.2-1.2-0.7-1.7l-1.7-1.7c-0.9-0.9-2.5-0.9-3.4,0l-3.4,3.4
				c-0.1-0.9,0-1.8,0.3-2.7c0.6-1.8,2-3.2,3.7-3.7c1.3-0.4,2.7-0.4,4,0.1l0.5,0.2l10.5-10.5l5.1-5.1l10.5-10.5l-0.2-0.5
				c-0.5-1.3-0.5-2.6-0.1-4c0.6-1.8,2-3.2,3.7-3.7c0.9-0.3,1.8-0.4,2.7-0.3l-3.4,3.4c-0.4,0.4-0.7,1-0.7,1.7s0.2,1.2,0.7,1.7
				l1.7,1.7c0.9,0.9,2.5,0.9,3.4,0l3.4-3.4c0.1,0.9,0,1.8-0.3,2.7c-0.6,1.8-2,3.2-3.7,3.7c-1.3,0.4-2.7,0.4-4-0.1l-0.5-0.2
				L29.7,24.1L24.6,29.2z M42.8,48.2c-3.3,0-5.9-2.7-5.9-5.9c0-0.7,0.1-1.4,0.4-2.1l0.2-0.5L26.9,29.2l2.8-2.8l10.5,10.5l0.5-0.2
				c0.7-0.3,1.4-0.4,2.1-0.4c3.3,0,5.9,2.7,5.9,5.9C48.7,45.5,46.1,48.2,42.8,48.2z"/>
		</g>
	</g>
</g>
</svg>
