<?xml version="1.0" encoding="utf-8"?>
<!-- Generator: Adobe Illustrator 21.0.0, SVG Export Plug-In . SVG Version: 6.00 Build 0)  -->
<svg version="1.1" id="Слой_1" xmlns="http://www.w3.org/2000/svg" xmlns:xlink="http://www.w3.org/1999/xlink" x="0px" y="0px"
	 viewBox="0 0 33.6 32.2" style="enable-background:new 0 0 33.6 32.2;" xml:space="preserve">
<style type="text/css">
	.st0{fill:#C8C8D4;}
	.st1{fill:#1EAAE0;}
</style>
<path class="st0" d="M30.9,13.2l-2.3-0.4l0-0.1c-0.2-0.7-0.5-1.5-0.9-2.1l0-0.1L29,8.6c0.5-0.7,0.4-1.7-0.2-2.4l-2-2
	c-0.3-0.3-0.8-0.5-1.3-0.5c-0.4,0-0.7,0.1-1.1,0.3l-1.9,1.4l-0.1,0C21.8,5,21,4.7,20.3,4.5l-0.1,0l-0.4-2.3
	c-0.1-0.9-0.9-1.5-1.8-1.5h-2.8c-0.9,0-1.7,0.6-1.8,1.5L13,4.5l-0.1,0c-0.7,0.2-1.5,0.5-2.1,0.9l-0.1,0L8.8,4.1
	C8.5,3.9,8.1,3.8,7.7,3.8c-0.5,0-1,0.2-1.3,0.5l-2,2C3.8,6.9,3.7,7.9,4.3,8.7l1.4,1.9l0,0.1c-0.4,0.7-0.7,1.4-0.9,2.2l0,0.1
	l-2.3,0.4c-0.9,0.1-1.5,0.9-1.5,1.8v2.8c0,0.9,0.6,1.7,1.5,1.8l2.3,0.4l0,0.1c0.2,0.7,0.5,1.5,0.9,2.1l0,0.1l-1.4,1.9
	C3.8,25,3.9,26,4.6,26.7l2,2c0.3,0.3,0.8,0.5,1.3,0.5c0.4,0,0.7-0.1,1.1-0.3l1.9-1.4l0.1,0c0.6,0.3,1.3,0.6,2.1,0.9l0.1,0l0.4,2.3
	c0.1,0.9,0.9,1.5,1.8,1.5h2.8c0.9,0,1.7-0.6,1.8-1.5l0.4-2.3l0.1,0c0.7-0.2,1.5-0.5,2.1-0.9l0.1,0l1.9,1.4c0.3,0.2,0.7,0.3,1.1,0.3
	c0.5,0,0.9-0.2,1.3-0.5l2-2c0.6-0.6,0.7-1.6,0.2-2.4l-1.4-1.9l0-0.1c0.4-0.7,0.7-1.4,0.9-2.1l0-0.1l2.3-0.4c0.9-0.1,1.5-0.9,1.5-1.8
	V15C32.5,14.2,31.8,13.4,30.9,13.2z M27.3,19.2c-0.3,1-0.7,2-1.2,2.8c-0.2,0.3-0.1,0.6,0,0.8l1.6,2.3c0.1,0.1,0.1,0.3,0,0.4l-2,2
	c-0.1,0.1-0.3,0.1-0.4,0l-2.3-1.6c-0.2-0.2-0.6-0.2-0.8,0c-0.9,0.5-1.8,0.9-2.8,1.2c-0.3,0.1-0.5,0.3-0.6,0.6l-0.5,2.8
	c0,0.2-0.2,0.3-0.3,0.3h-2.8c-0.2,0-0.3-0.1-0.3-0.3l-0.5-2.8c-0.1-0.3-0.3-0.5-0.6-0.6c-1-0.2-1.9-0.6-2.8-1.1
	c-0.1-0.1-0.3-0.1-0.4-0.1c-0.2,0-0.3,0.1-0.4,0.1L8,27.6c-0.2,0.1-0.3,0.1-0.4,0l-2-2c-0.1-0.1-0.1-0.3,0-0.4l1.6-2.3
	c0.2-0.2,0.2-0.6,0-0.8c-0.5-0.9-0.9-1.8-1.2-2.8C6,19,5.8,18.8,5.5,18.7l-2.8-0.5c-0.2,0-0.3-0.2-0.3-0.3v-2.8
	c0-0.2,0.1-0.3,0.3-0.3l2.8-0.5C5.7,14.3,6,14.1,6,13.8c0.3-1,0.6-2,1.2-2.8c0.2-0.3,0.1-0.6,0-0.8L5.5,7.8c-0.1-0.1-0.1-0.3,0-0.4
	l2-2c0.1-0.1,0.3-0.1,0.4,0L10.2,7c0.2,0.2,0.6,0.2,0.8,0c0.9-0.5,1.8-0.9,2.8-1.2c0.3-0.1,0.5-0.3,0.6-0.6l0.5-2.8
	c0-0.2,0.2-0.3,0.3-0.3H18c0.2,0,0.3,0.1,0.3,0.3l0.5,2.8c0.1,0.3,0.3,0.5,0.6,0.6c1,0.3,2,0.7,2.9,1.2c0.3,0.1,0.6,0.1,0.8,0
	l2.3-1.7c0.1-0.1,0.3-0.1,0.4,0l2,2c0.1,0.1,0.1,0.3,0,0.4l-1.6,2.3c-0.2,0.2-0.2,0.6,0,0.8c0.5,0.9,0.9,1.8,1.2,2.8
	c0.1,0.3,0.3,0.5,0.6,0.6l2.8,0.5c0.2,0,0.3,0.2,0.3,0.3v2.8l0,0.1h0l0,0.1c-0.1,0.1-0.1,0.1-0.2,0.1l-2.8,0.5
	C27.6,18.7,27.4,18.9,27.3,19.2z"/>
<path class="st1" d="M16.7,9.7c-3.7,0-6.7,3-6.7,6.7s3,6.7,6.7,6.7c3.7,0,6.7-3,6.7-6.7S20.4,9.7,16.7,9.7z M16.7,21.7
	c-2.9,0-5.2-2.3-5.2-5.2s2.3-5.2,5.2-5.2s5.2,2.3,5.2,5.2S19.5,21.7,16.7,21.7z"/>
</svg>
