<?xml version="1.0" encoding="utf-8"?>
<!-- Generator: Adobe Illustrator 21.0.0, SVG Export Plug-In . SVG Version: 6.00 Build 0)  -->
<svg version="1.1" id="Слой_1" xmlns="http://www.w3.org/2000/svg" xmlns:xlink="http://www.w3.org/1999/xlink" x="0px" y="0px"
	 viewBox="0 0 31.9 40.1" style="enable-background:new 0 0 31.9 40.1;" xml:space="preserve">
<style type="text/css">
	.st0{fill:#1EAAE0;}
	.st1{fill:#C8C8D4;}
</style>
<path class="st0" d="M30.4,4.7l-3.3-3.3c-0.4-0.4-1-0.4-1.4,0l-16,16c-0.1,0.1-0.2,0.3-0.3,0.4l-1.1,4.4c-0.1,0.3,0,0.7,0.3,0.9
	c0.2,0.2,0.4,0.3,0.7,0.3c0.1,0,0.2,0,0.2,0l4.4-1.1c0.2,0,0.3-0.1,0.4-0.3L27.7,8.8l0.1,0V8.7L30.4,6C30.8,5.7,30.8,5.1,30.4,4.7z
	 M25.7,8L13.3,20.5l-2.6,0.7l0.7-2.6L23.8,6.1L25.7,8z M28.4,5.4l-1.3,1.3l-1.9-1.9l1.3-1.3L28.4,5.4z"/>
<path class="st1" d="M29.7,10.1c-0.6,0-1.1,0.5-1.1,1.1v26.7H2.9V6.3h15.3c0.6,0,1.1-0.5,1.1-1.1s-0.5-1.1-1.1-1.1H1.8
	c-0.6,0-1.1,0.5-1.1,1.1V39c0,0.6,0.5,1.1,1.1,1.1h28c0.6,0,1.1-0.5,1.1-1.1V11.2C30.8,10.6,30.3,10.1,29.7,10.1z"/>
</svg>
