<?xml version="1.0" standalone="no"?>
<!DOCTYPE svg PUBLIC "-//W3C//DTD SVG 20010904//EN"
 "http://www.w3.org/TR/2001/REC-SVG-20010904/DTD/svg10.dtd">
<svg version="1.0" xmlns="http://www.w3.org/2000/svg"
 width="700.000000pt" height="700.000000pt" viewBox="0 0 700.000000 700.000000"
 preserveAspectRatio="xMidYMid meet">
<metadata>
Created by potrace 1.11, written by Peter Selinger 2001-2013
</metadata>
<g transform="translate(0.000000,700.000000) scale(0.100000,-0.100000)"
fill="#000000" stroke="none">
<path d="M1796 6648 l-163 -333 1382 -5 1383 -5 -33 -70 c-18 -38 -63 -135
-100 -215 -37 -80 -82 -176 -100 -215 -18 -38 -50 -106 -70 -150 -21 -44 -52
-111 -70 -150 -18 -38 -46 -99 -63 -135 -16 -36 -52 -112 -79 -170 -28 -58
-60 -127 -73 -155 -12 -27 -37 -81 -55 -120 -43 -92 -170 -364 -205 -440 -15
-33 -49 -105 -75 -160 -54 -116 -90 -192 -135 -290 -97 -211 -162 -350 -200
-430 -23 -49 -57 -121 -75 -160 -18 -38 -49 -106 -70 -150 -20 -44 -49 -107
-65 -140 -38 -83 -365 -784 -405 -870 -41 -87 -168 -361 -202 -435 -14 -30
-52 -111 -84 -178 -33 -68 -59 -125 -59 -127 0 -2 -23 -52 -51 -112 -28 -59
-64 -135 -79 -168 -33 -72 -90 -194 -136 -292 -19 -40 -49 -106 -68 -145 -31
-67 -60 -128 -136 -293 -15 -33 -47 -100 -70 -150 -45 -96 -82 -176 -136 -293
l-33 -72 1970 2 1971 3 37 70 c21 39 61 115 91 170 97 184 137 259 184 347
l47 88 -1614 2 -1615 3 28 60 c16 33 42 89 58 125 16 36 49 106 72 155 23 50
56 119 72 155 64 140 140 303 193 415 30 64 55 118 55 120 0 3 40 89 139 299
28 59 51 110 51 111 0 2 21 47 46 102 26 54 72 154 104 223 72 157 114 246
179 384 28 59 51 110 51 111 0 2 21 47 46 102 26 54 72 154 104 223 32 69 73
159 93 200 19 41 62 134 95 205 33 72 76 164 95 205 65 140 95 205 120 260 14
30 44 96 67 145 23 50 98 212 167 360 69 149 140 302 158 340 64 136 223 481
243 526 12 25 46 99 77 164 30 64 55 118 55 120 0 1 22 49 49 106 26 57 73
158 104 224 30 66 74 161 97 210 23 50 68 146 100 215 32 69 76 164 98 212 37
78 62 132 84 181 7 16 -79 17 -1737 17 l-1745 0 -164 -332z"/>
</g>
</svg>
